<?xml version="1.0" standalone="no"?>
<!DOCTYPE svg PUBLIC "-//W3C//DTD SVG 20010904//EN"
 "http://www.w3.org/TR/2001/REC-SVG-20010904/DTD/svg10.dtd">
<svg version="1.0" xmlns="http://www.w3.org/2000/svg"
 width="270.000000pt" height="270.000000pt" viewBox="0 0 270.000000 270.000000"
 preserveAspectRatio="xMidYMid meet">
<metadata>
Created by potrace 1.14, written by Peter Selinger 2001-2017
</metadata>
<g transform="translate(0.000000,270.000000) scale(0.100000,-0.100000)"
fill="#000000" stroke="none">
<path d="M1244 2584 c-40 -12 -54 -19 -134 -69 -174 -109 -339 -209 -410 -247
-47 -25 -121 -65 -165 -88 -44 -24 -97 -53 -119 -64 -69 -37 -124 -94 -158
-164 l-33 -67 1 -155 c3 -336 2 -568 -1 -630 -8 -175 -6 -256 8 -295 29 -79
41 -105 49 -105 4 0 8 -5 8 -10 0 -6 14 -23 31 -38 17 -15 40 -35 50 -45 10
-9 19 -14 19 -10 0 4 7 -2 16 -13 8 -10 13 -13 9 -6 -3 6 11 2 32 -10 21 -12
40 -26 41 -30 2 -4 11 -8 21 -8 9 0 26 -7 37 -16 10 -8 13 -13 7 -9 -7 3 -13
1 -13 -4 0 -6 7 -11 15 -11 14 0 19 -12 16 -33 0 -4 3 -7 9 -7 13 0 13 6 0 31
-6 11 -7 19 -1 19 5 0 12 -7 15 -16 4 -9 9 -14 13 -11 8 9 60 -20 66 -38 4 -8
4 -23 1 -33 -5 -16 -5 -16 6 1 6 9 8 22 5 27 -3 6 -2 10 4 10 14 0 20 -23 10
-42 -5 -9 -5 -19 -1 -22 5 -3 9 1 10 9 1 8 3 21 4 28 2 15 128 -50 128 -65 0
-5 -6 -6 -12 -2 -10 6 -10 5 -1 -8 7 -8 11 -18 8 -21 -3 -4 -2 -4 3 -1 4 3 7
10 7 15 0 5 5 8 10 7 6 -2 9 -9 9 -16 -2 -10 1 -10 12 -1 8 6 15 9 15 5 1 -3
2 -10 3 -15 0 -5 5 -13 10 -18 5 -5 6 -3 2 4 -4 7 -4 13 0 13 13 0 74 -42 74
-51 0 -6 4 -8 9 -4 5 3 15 -1 23 -8 7 -7 28 -20 46 -28 17 -7 32 -17 32 -21 0
-5 5 -8 10 -8 6 0 27 -11 48 -25 108 -71 248 -79 361 -21 18 10 111 66 207
126 95 60 207 127 248 149 159 86 223 120 286 152 92 48 172 129 200 204 25
64 26 94 16 500 -2 93 0 145 8 154 8 11 8 13 -1 8 -8 -5 -10 4 -7 31 2 20 4
70 5 109 0 40 5 76 10 79 6 4 6 11 -1 19 -12 15 -10 36 5 47 6 5 5 8 -2 8 -7
0 -13 5 -13 11 0 5 5 7 12 3 7 -4 8 -3 4 5 -4 6 -2 19 5 27 9 12 9 13 -2 9
-11 -4 -14 6 -15 40 -1 25 3 45 8 45 5 0 2 7 -6 16 -9 8 -14 20 -11 25 4 5 1
9 -6 9 -7 0 -9 10 -7 25 3 13 2 22 -2 20 -9 -5 -66 76 -62 88 1 5 -1 6 -5 4
-5 -3 -23 8 -42 24 -29 24 -32 31 -22 43 10 12 18 13 32 5 10 -5 19 -7 19 -5
0 3 -13 12 -30 21 -23 12 -28 12 -24 2 3 -8 -2 -19 -10 -26 -11 -10 -14 -8
-14 11 0 13 -3 34 -7 48 -6 23 -5 24 8 8 8 -10 23 -18 33 -17 14 0 15 2 4 6
-8 3 -20 12 -27 20 -17 22 -36 6 -28 -25 5 -22 4 -24 -9 -13 -9 7 -13 17 -10
22 3 5 2 9 -3 8 -4 -1 -14 -1 -22 0 -19 1 -4 16 16 16 9 0 18 6 20 13 3 6 0
12 -7 12 -6 0 -8 -5 -4 -12 5 -7 2 -9 -9 -5 -8 3 -21 -1 -27 -9 -7 -8 -17 -14
-22 -14 -6 0 -6 5 1 14 17 20 -13 43 -34 26 -17 -14 -21 0 -5 16 6 6 8 18 4
27 -5 15 -8 14 -23 -5 -12 -14 -22 -18 -31 -13 -11 7 -9 10 6 16 17 7 17 8 1
8 -10 1 -20 -6 -23 -14 -4 -8 -12 -15 -20 -15 -19 0 -18 16 2 24 9 3 14 13 10
21 -3 8 -1 17 4 20 6 4 10 -2 10 -11 0 -10 3 -15 6 -11 4 3 4 13 0 22 -5 13
-12 12 -46 -11 -42 -28 -54 -42 -20 -24 17 9 20 8 17 -12 -2 -19 2 -23 26 -21
15 1 25 -2 22 -8 -9 -14 -41 -11 -55 6 -7 8 -16 12 -21 9 -5 -3 -9 0 -9 6 0 6
-5 8 -11 4 -7 -4 -7 1 1 16 14 26 5 40 -13 20 -9 -10 -9 -11 1 -6 18 10 15 1
-5 -15 -14 -12 -16 -12 -8 0 6 11 4 13 -8 8 -8 -3 -21 1 -27 9 -7 8 -16 14
-21 14 -18 0 -99 56 -92 64 4 4 1 4 -8 1 -8 -3 -24 3 -34 13 -11 10 -37 26
-58 35 -22 11 -35 23 -31 29 4 7 2 8 -4 4 -14 -8 -64 23 -56 35 3 5 -1 7 -8 4
-7 -3 -37 11 -67 30 -106 70 -221 91 -327 59z m836 -294 c0 -5 -2 -10 -4 -10
-3 0 -8 5 -11 10 -3 6 -1 10 4 10 6 0 11 -4 11 -10z m63 -47 c-13 -9 -23 -21
-23 -27 0 -6 4 -4 10 4 8 12 10 12 16 -3 3 -9 10 -17 16 -17 5 0 7 4 3 9 -8
14 15 25 28 12 7 -7 6 -12 -7 -17 -15 -6 -15 -7 1 -19 13 -10 20 -10 25 -2 6
9 8 8 8 -1 0 -7 4 -11 9 -8 4 3 16 -3 26 -14 10 -11 22 -17 26 -14 5 3 9 1 9
-5 0 -5 -4 -13 -10 -16 -5 -3 -10 -1 -10 5 0 6 -5 8 -12 4 -7 -5 -8 -3 -3 6 6
10 4 12 -9 7 -10 -4 -19 -1 -22 6 -2 7 -14 14 -27 14 -12 1 -23 7 -25 13 -2 5
-10 10 -18 10 -8 0 -14 5 -14 11 0 5 -4 8 -8 5 -4 -2 -14 -1 -22 5 -12 7 -9
13 15 33 17 13 32 22 35 19 3 -3 -5 -12 -17 -20z m-688 -209 c22 -10 43 -17
47 -16 4 1 16 -9 26 -23 11 -13 21 -23 23 -22 2 1 3 0 2 -2 -1 -2 8 -12 20
-22 13 -11 17 -18 9 -19 -7 0 -10 -5 -7 -10 4 -6 12 -7 18 -4 7 4 9 4 6 0 -4
-4 4 -19 17 -33 23 -25 24 -27 7 -46 -17 -19 -17 -19 3 -13 14 4 26 1 35 -11
11 -15 11 -16 -1 -5 -22 19 -35 14 -16 -7 11 -12 14 -21 7 -26 -6 -3 -11 -11
-11 -17 0 -7 6 -6 15 2 10 9 15 9 15 1 0 -6 -5 -11 -11 -11 -8 0 -8 -4 0 -14
10 -12 8 -17 -9 -26 -12 -6 -24 -9 -27 -7 -2 3 5 8 16 12 12 3 19 11 15 16 -3
5 -10 7 -15 4 -5 -4 -19 1 -31 9 -12 9 -18 16 -13 16 11 0 -27 29 -39 30 -5 0
-2 -8 7 -18 19 -21 22 -42 6 -42 -5 0 -7 5 -4 10 10 16 -14 40 -33 33 -13 -4
-14 -3 -3 5 7 5 9 12 4 15 -11 7 -35 -7 -33 -19 1 -5 -4 -10 -12 -12 -8 -2 -9
0 -3 5 17 14 18 43 0 37 -8 -3 -12 -10 -9 -15 3 -5 -3 -6 -13 -2 -14 5 -16 3
-6 -7 9 -10 7 -16 -9 -30 -19 -15 -19 -17 -5 -23 11 -4 17 -1 17 8 0 8 5 15
10 15 7 0 7 -7 0 -21 -11 -19 -13 -19 -36 -4 -13 8 -24 11 -24 5 0 -5 -4 -10
-10 -10 -5 0 -7 7 -3 16 3 8 11 13 18 10 13 -5 35 12 35 27 0 5 -7 4 -15 -3
-8 -6 -19 -9 -24 -6 -5 4 -17 -4 -26 -16 -16 -21 -16 -22 -11 -2 5 17 2 20
-24 20 -22 0 -29 -4 -25 -13 2 -8 0 -11 -5 -8 -6 3 -10 2 -10 -4 0 -5 6 -11
13 -14 6 -3 2 -4 -9 -4 -15 1 -20 6 -16 16 3 9 1 12 -7 7 -6 -4 -18 -2 -26 4
-11 9 -14 7 -12 -9 1 -15 6 -20 17 -16 9 4 8 0 -5 -13 -20 -18 -20 -18 -38 5
-10 13 -22 21 -27 18 -13 -8 -21 25 -10 43 9 14 10 13 5 -6 -6 -20 -4 -22 19
-18 35 6 48 15 40 28 -5 7 -2 8 6 3 9 -6 11 -4 5 6 -7 12 -6 12 7 1 13 -10 15
-9 14 10 -1 19 4 23 26 22 15 0 24 4 21 10 -3 5 -1 6 5 2 7 -4 10 1 7 13 -3
17 9 21 35 11 3 -1 9 -2 13 -1 4 1 17 -3 27 -9 16 -8 18 -8 14 5 -3 8 -9 13
-13 11 -4 -3 -13 -1 -21 5 -10 5 -11 9 -3 9 7 0 10 7 7 18 -5 13 -4 14 4 3 6
-8 12 -9 16 -3 6 10 -21 26 -40 24 -6 -1 -11 5 -11 13 0 10 6 14 16 10 13 -5
13 -4 4 6 -10 10 -20 7 -48 -12 -19 -13 -35 -29 -35 -35 0 -6 -11 -11 -25 -11
-13 0 -22 3 -19 8 3 5 0 9 -6 9 -7 0 -9 -8 -5 -21 l7 -22 -33 22 -34 23 28
-24 c27 -24 36 -48 17 -48 -5 0 -10 8 -10 18 -1 16 -1 16 -11 -1 -6 -9 -16
-14 -22 -11 -7 4 -9 4 -5 0 7 -8 -33 -59 -40 -51 -3 2 0 10 6 18 8 10 6 16 -9
25 -10 7 -19 8 -19 3 0 -5 6 -11 13 -14 6 -2 9 -8 5 -12 -4 -4 -13 -3 -21 3
-9 8 -17 8 -27 0 -13 -8 -12 -9 2 -5 17 6 53 -25 41 -36 -10 -11 -33 -8 -33 4
0 5 5 7 12 3 7 -4 8 -3 4 5 -10 16 -29 2 -22 -16 4 -10 1 -13 -13 -8 -14 4
-21 0 -26 -15 -4 -11 -11 -18 -16 -15 -5 3 -6 -1 -3 -9 3 -9 1 -16 -5 -16 -6
0 -11 5 -11 11 0 8 -5 8 -15 -1 -8 -7 -15 -9 -15 -4 0 13 16 36 24 35 18 -3
24 1 34 24 10 21 9 27 -3 31 -19 8 -19 19 0 38 9 8 15 17 15 18 -4 11 14 37
23 31 6 -3 7 -1 3 6 -9 13 62 103 75 95 5 -3 9 0 9 6 0 6 24 22 53 34 63 29
160 29 222 0z m-88 -111 c0 -10 -4 -23 -8 -29 -5 -7 -3 -11 6 -11 8 0 12 4 10
8 -3 3 2 12 10 19 14 11 14 10 6 -12 -5 -14 -7 -29 -3 -34 4 -4 0 -3 -8 2 -27
16 -53 16 -46 -1 3 -9 -3 -19 -14 -25 -11 -6 -20 -8 -20 -4 0 3 -7 1 -15 -6
-8 -7 -12 -16 -9 -21 3 -5 -2 -6 -10 -3 -14 5 -20 -5 -18 -27 1 -4 -9 -9 -22
-11 -17 -4 -23 -1 -19 9 3 7 9 11 14 8 4 -3 13 4 19 16 7 12 8 19 2 15 -6 -3
-13 0 -16 6 -3 7 -3 3 0 -9 4 -18 1 -21 -15 -18 -21 4 -49 -30 -37 -42 3 -4 1
-12 -4 -18 -8 -9 -4 -12 15 -10 23 3 31 -6 25 -30 -1 -5 -3 -15 -3 -22 0 -7
-5 -9 -10 -6 -6 4 -8 -1 -4 -11 4 -10 3 -15 -4 -11 -13 9 -41 -14 -33 -27 4
-6 10 -5 15 3 4 7 11 11 14 8 11 -11 -20 -28 -35 -19 -11 7 -11 11 -1 24 8 10
9 16 3 16 -6 0 -14 -5 -17 -10 -4 -6 -11 -8 -16 -5 -5 4 -9 2 -9 -4 0 -5 6
-12 13 -15 6 -3 -1 -3 -18 -1 -28 4 -29 3 -11 -10 11 -9 28 -13 37 -10 28 9
35 -16 9 -37 -12 -10 -19 -18 -15 -18 5 0 -1 -8 -12 -17 -11 -10 -18 -25 -16
-33 4 -12 3 -12 -5 -2 -7 10 -15 6 -36 -19 -19 -22 -27 -27 -24 -14 1 10 -2
20 -7 22 -6 2 -11 -10 -10 -27 0 -25 3 -29 20 -24 20 5 20 5 0 -7 -11 -6 -26
-19 -33 -28 -12 -14 -13 -14 -10 3 2 10 -2 21 -8 23 -6 2 -10 -9 -10 -26 0
-22 4 -29 18 -28 10 1 18 6 18 12 0 13 40 39 48 31 3 -3 0 -6 -7 -6 -7 0 -9
-5 -5 -12 4 -7 3 -8 -4 -4 -6 3 -16 -3 -22 -14 -6 -11 -16 -18 -22 -14 -6 4
-9 1 -6 -7 3 -8 -2 -22 -11 -33 -15 -18 -15 -18 9 -12 14 3 19 3 12 0 -6 -3
-10 -9 -7 -13 2 -4 -9 -7 -25 -6 -27 2 -49 -19 -35 -33 3 -3 5 0 5 8 0 9 3 10
14 1 11 -9 15 -9 19 1 2 7 7 10 11 7 3 -3 -3 -15 -14 -27 -21 -23 -27 -37 -10
-27 6 3 10 1 10 -5 0 -7 -7 -9 -16 -6 -10 4 -14 2 -11 -6 2 -7 10 -12 16 -10
6 1 11 -2 11 -8 0 -5 -6 -10 -12 -10 -9 0 -8 -3 2 -10 8 -5 11 -12 7 -16 -9
-10 -18 0 -21 23 -2 10 -11 19 -22 21 -16 3 -17 1 -4 -7 13 -9 13 -11 1 -11
-11 0 -10 -4 4 -13 11 -9 15 -19 10 -27 -5 -9 -2 -10 14 -5 24 7 26 2 11 -25
-6 -12 -16 -17 -26 -13 -14 5 -14 3 -3 -15 13 -20 14 -20 36 14 13 19 21 39
18 44 -3 6 -4 10 -1 10 3 0 12 -13 21 -29 23 -46 7 -69 -44 -61 -13 1 -13 -1
-2 -14 10 -12 17 -13 27 -5 7 6 17 8 23 5 5 -4 12 3 16 14 4 13 14 19 30 18
13 -1 21 -6 19 -10 -3 -4 0 -8 5 -8 6 0 11 8 11 18 0 14 2 15 10 2 10 -16 -13
-36 -29 -25 -5 3 -12 1 -16 -5 -3 -5 -1 -10 5 -10 6 0 9 -8 6 -18 -4 -13 -1
-18 14 -18 14 0 18 5 15 17 -3 10 1 19 11 23 14 5 15 4 5 -8 -9 -11 -7 -13 14
-13 14 0 28 4 31 9 3 5 15 6 27 2 18 -5 20 -4 10 7 -7 7 -13 17 -13 23 0 5 6
1 14 -9 16 -23 11 -39 -10 -31 -8 3 -29 -8 -47 -24 -17 -16 -27 -30 -21 -30 6
0 17 7 24 15 7 8 16 12 21 9 5 -3 9 0 9 5 0 6 5 11 10 11 6 0 4 -10 -5 -23 -8
-13 -12 -27 -8 -32 5 -4 4 -6 -2 -3 -5 3 -16 0 -23 -8 -15 -17 -12 -17 22 -4
16 6 24 15 20 23 -7 20 72 93 97 89 15 -3 19 0 14 9 -5 8 -4 10 4 5 14 -9 5
-26 -14 -26 -8 0 -19 -8 -24 -17 -8 -13 -10 -14 -11 -4 0 17 -60 -36 -60 -53
0 -5 11 1 24 13 13 12 27 21 32 20 23 -4 35 2 28 14 -5 7 -1 6 10 -3 16 -13
20 -12 37 9 11 13 22 21 25 18 3 -3 -9 -19 -28 -36 -18 -17 -28 -31 -21 -31 6
0 19 8 29 17 16 16 16 16 10 -4 -7 -21 -6 -22 23 -7 16 8 29 20 27 27 -1 7 -1
9 1 5 3 -5 11 -8 19 -8 17 0 18 -12 2 -28 -8 -8 -8 -12 -1 -12 13 0 39 30 27
30 -5 0 -3 4 5 9 17 11 43 3 35 -10 -3 -5 2 -9 11 -9 9 0 14 4 10 9 -3 5 -1
12 5 16 5 3 10 11 10 17 0 7 -4 7 -13 0 -15 -12 -46 2 -33 15 5 4 11 2 13 -4
4 -10 8 -9 20 2 8 8 20 12 26 8 6 -4 8 -1 5 8 -4 11 1 15 18 15 13 0 24 -4 24
-9 0 -4 4 -6 9 -2 5 3 12 1 16 -5 3 -5 12 -10 18 -10 7 1 1 10 -12 20 -13 11
-18 21 -12 21 20 3 26 4 39 12 21 14 33 -2 20 -26 -7 -12 -11 -29 -10 -37 2
-12 1 -12 -6 -2 -7 11 -11 10 -16 -3 -3 -10 -12 -15 -20 -12 -8 3 -20 -2 -28
-11 -9 -11 -10 -14 0 -8 6 4 12 5 12 2 0 -3 -10 -11 -22 -17 l-22 -12 19 29
c13 20 14 25 3 16 -8 -7 -22 -11 -29 -9 -8 2 -10 2 -6 -1 4 -2 0 -11 -10 -19
-17 -13 -17 -14 2 -5 17 9 20 6 22 -16 1 -20 -1 -22 -8 -11 -11 21 -54 17 -52
-5 0 -10 -2 -15 -5 -12 -3 3 -12 0 -21 -6 -13 -10 -14 -10 -3 2 6 8 12 18 12
24 0 5 -6 1 -14 -10 -9 -11 -11 -23 -6 -28 10 -10 -6 -36 -22 -36 -6 0 -5 7 2
15 7 9 10 18 7 22 -4 3 -1 13 6 21 10 13 9 14 -10 3 -13 -6 -23 -9 -23 -5 0 4
-3 4 -7 1 -3 -4 2 -14 13 -22 19 -15 19 -15 -1 -9 -11 3 -16 2 -10 -3 10 -8
17 -28 18 -50 0 -13 4 -15 30 -17 6 -1 15 -5 19 -11 5 -6 8 -4 8 5 0 9 9 16
20 17 16 1 17 -1 9 -15 -9 -14 -24 -17 -83 -15 -39 1 -83 4 -98 6 -16 2 -28 0
-28 -7 0 -6 -7 -2 -15 8 -13 17 -19 15 -17 -5 1 -4 -8 -5 -18 -2 -11 3 -20 10
-20 15 0 6 8 7 18 3 13 -5 14 -4 5 6 -15 15 2 53 19 43 6 -4 8 1 4 14 -5 14
-1 24 11 31 13 7 14 10 4 11 -8 0 -12 3 -9 6 9 8 49 -16 43 -25 -3 -5 2 -12
11 -15 12 -5 15 -2 9 11 -4 10 -8 23 -9 30 -3 18 -16 29 -16 13 0 -9 -4 -10
-13 -2 -17 14 -40 0 -44 -28 -2 -11 -11 -32 -20 -47 -10 -14 -18 -33 -19 -41
-2 -8 -8 -20 -14 -26 -6 -6 -11 -7 -10 -1 5 23 -1 28 -13 10 -11 -14 -16 -15
-22 -5 -5 9 -4 11 3 6 7 -4 12 -2 12 4 0 6 -8 10 -17 8 -10 -2 -17 -9 -16 -16
2 -8 -4 -9 -20 -3 -12 4 -27 7 -32 5 -6 -2 -15 6 -20 18 -6 12 -17 24 -25 26
-11 4 -10 -1 4 -17 23 -26 13 -40 -16 -22 -18 11 -20 11 -15 -2 4 -11 0 -13
-14 -10 -10 3 -19 10 -19 15 0 5 4 7 9 3 5 -3 13 0 17 6 4 8 3 9 -4 5 -7 -4
-12 -2 -12 5 0 7 -3 9 -7 6 -3 -4 -12 -2 -20 4 -9 8 -13 8 -13 1 0 -6 5 -14
10 -17 18 -11 10 -22 -16 -23 -14 0 -21 3 -16 7 7 4 8 12 2 21 -6 8 -10 11
-10 6 0 -5 -7 -3 -15 4 -9 8 -15 9 -15 2 0 -6 5 -14 10 -17 6 -3 10 -12 10
-18 0 -9 -2 -9 -8 -1 -4 6 -15 10 -25 8 -15 -2 -16 0 -6 12 6 8 8 14 3 14 -5
0 -2 5 6 11 12 8 11 10 -5 7 -11 -2 -20 -10 -20 -18 0 -8 -7 -15 -15 -15 -8 0
-15 5 -15 12 0 16 -8 22 -36 26 -13 2 -24 10 -24 18 -1 8 -7 13 -14 11 -7 -1
-10 2 -6 8 3 6 10 8 15 5 9 -6 23 25 15 33 -3 3 -5 0 -5 -7 0 -7 -4 -10 -9 -6
-5 3 -12 1 -16 -5 -4 -6 -11 -8 -16 -4 -5 3 -7 9 -4 14 3 4 -2 11 -11 14 -8 3
-13 10 -9 15 3 5 1 12 -5 16 -6 4 -8 11 -5 16 4 5 1 9 -5 9 -7 0 -10 7 -7 15
4 8 2 17 -2 19 -5 3 -8 15 -7 27 1 25 30 34 46 14 9 -11 7 -14 -9 -12 -12 1
-21 6 -21 11 0 5 -3 6 -6 3 -9 -9 16 -38 27 -31 5 3 16 -2 25 -10 9 -9 21 -13
27 -9 7 4 4 9 -8 13 -17 6 -17 7 4 13 15 4 20 10 15 18 -4 7 -3 10 3 6 12 -7
11 23 -2 43 -8 13 -7 13 9 0 16 -12 20 -12 30 0 14 19 36 24 36 8 0 -6 3 -9 6
-5 4 3 -3 18 -15 33 -11 15 -21 22 -21 16 0 -6 -10 -1 -23 11 -13 12 -22 25
-19 30 2 4 11 -1 20 -11 9 -10 13 -11 7 -3 -8 12 -7 13 5 7 8 -4 6 0 -4 8 -11
9 -15 16 -10 16 6 0 16 -6 23 -12 11 -11 12 -10 6 1 -6 10 -4 12 6 6 11 -7 11
-5 -1 10 -8 10 -10 16 -4 12 13 -8 13 31 -1 53 -8 13 -7 13 10 0 12 -9 16 -10
11 -2 -5 8 -3 11 6 10 7 -2 12 3 10 10 -1 8 2 11 8 7 14 -8 42 14 34 27 -3 5
-12 1 -20 -9 -7 -10 -14 -14 -14 -9 0 5 -7 3 -15 -4 -8 -7 -15 -8 -15 -2 0 16
27 35 33 22 3 -6 4 -5 2 2 -1 7 -7 12 -13 11 -5 -1 -13 4 -16 13 -4 11 -2 12
13 5 13 -7 18 -6 18 4 0 8 -4 12 -9 9 -15 -9 -8 3 9 17 9 8 14 9 10 2 -5 -7
-1 -10 10 -8 10 1 17 8 15 15 -1 6 3 8 9 5 6 -4 3 5 -7 21 -10 16 -14 26 -9
21 4 -4 17 0 27 10 10 9 18 13 18 8 0 -4 7 -2 15 5 12 10 15 10 15 -1 0 -11 2
-11 9 1 6 8 7 18 5 22 -3 4 0 8 7 8 7 0 4 7 -7 15 -16 13 -16 14 -1 9 10 -4
17 -1 17 6 0 6 5 8 11 4 8 -5 8 -1 0 14 -8 15 -7 23 3 31 7 6 16 8 19 4 4 -3
7 -1 7 6 0 8 -7 11 -17 6 -15 -5 -16 -4 -5 7 11 11 17 9 34 -12 l20 -25 -17
29 c-10 16 -12 25 -4 21 8 -6 10 -4 4 5 -5 9 -4 11 4 6 6 -4 9 -11 6 -16 -3
-4 2 -10 10 -13 9 -4 12 -1 9 7 -3 8 0 17 5 21 6 3 9 11 6 16 -3 5 1 6 9 3 9
-3 16 -10 16 -15 0 -5 8 -1 18 9 13 12 15 19 7 24 -15 9 -11 54 4 50 7 -1 10
2 6 8 -3 6 -12 7 -18 3 -7 -4 -15 -8 -19 -8 -3 0 -10 -4 -15 -9 -5 -5 -2 -6 6
-1 9 5 12 3 9 -5 -4 -14 -38 -23 -38 -11 0 14 28 46 35 40 3 -4 24 12 46 35
24 25 50 42 67 44 15 1 37 3 49 4 17 2 20 5 12 20 -11 21 -21 24 -13 5 3 -8
-2 -14 -11 -14 -8 0 -15 3 -15 7 0 13 23 28 35 23 8 -2 18 5 25 16 6 12 16 21
22 21 6 0 3 -10 -8 -22 l-19 -23 22 18 c12 11 19 25 16 33 -3 8 -1 14 4 14 5
0 10 -8 10 -17z m-320 -147 c-8 -11 -19 -21 -25 -21 -6 0 -14 -3 -17 -7 -12
-12 -15 -67 -5 -73 6 -3 10 -12 10 -18 -1 -7 -9 -2 -19 10 -10 12 -21 19 -25
16 -3 -4 -6 -1 -6 5 0 7 4 12 8 12 4 0 14 16 21 35 7 19 18 35 26 35 8 0 17 5
21 12 4 7 3 8 -4 4 -7 -4 -12 -3 -12 2 0 15 11 21 26 15 13 -5 13 -8 1 -27z
m34 -44 c-9 -3 -9 -7 0 -18 6 -8 15 -11 20 -8 5 3 9 0 9 -5 0 -6 5 -11 11 -11
5 0 8 4 4 9 -3 5 0 13 6 17 7 4 9 3 5 -4 -3 -6 -2 -13 4 -17 19 -12 0 -26 -20
-15 -26 14 -33 13 -27 -5 8 -19 -5 -26 -23 -12 -22 17 -22 33 -3 70 11 22 18
27 21 18 3 -8 0 -17 -7 -19z m443 13 c-7 -18 -20 -19 -30 -3 -4 7 -3 8 4 4 7
-4 12 -2 12 3 0 6 4 11 10 11 5 0 7 -7 4 -15z m24 -2 c-2 -10 5 -23 15 -29 17
-10 18 -12 3 -17 -10 -4 -15 -3 -12 2 3 5 0 11 -8 14 -9 4 -12 14 -9 26 6 25
16 28 11 4z m150 -5 c10 -12 10 -18 1 -24 -8 -4 -9 -3 -5 4 4 7 2 12 -3 12 -6
0 -11 8 -11 17 0 9 1 14 3 12 1 -2 8 -11 15 -21z m-338 8 c0 -3 -4 -8 -10 -11
-5 -3 -10 -1 -10 4 0 6 5 11 10 11 6 0 10 -2 10 -4z m121 -43 c-12 -20 -14
-14 -5 12 4 9 9 14 11 11 3 -2 0 -13 -6 -23z m129 17 c0 -5 -4 -10 -10 -10 -5
0 -10 5 -10 10 0 6 5 10 10 10 6 0 10 -4 10 -10z m-570 -25 c15 -18 -1 -20
-19 -2 -10 10 -11 9 -6 -5 4 -10 13 -18 21 -18 8 0 14 -4 14 -10 0 -5 -7 -10
-15 -10 -8 0 -16 -4 -16 -10 -2 -11 -5 -25 -9 -37 -1 -5 -3 -15 -4 -23 0 -8
-9 -14 -18 -12 -18 3 -24 -9 -11 -22 10 -10 13 -37 3 -31 -5 3 -11 1 -15 -4
-3 -6 -12 -8 -19 -5 -7 3 -16 -2 -19 -10 -4 -10 -13 -13 -23 -9 -14 5 -16 3
-10 -13 14 -36 16 -58 4 -46 -8 8 -18 5 -39 -10 -15 -12 -26 -25 -23 -29 2 -4
-1 -11 -7 -15 -8 -5 -9 -3 -4 6 5 8 4 11 -3 6 -5 -3 -13 -1 -15 4 -3 6 -4 5
-3 -2 4 -18 -13 -50 -24 -43 -5 3 -7 -7 -5 -23 2 -15 -1 -35 -6 -43 -8 -10 -9
-8 -5 11 3 14 3 19 0 12 -3 -6 -9 -10 -13 -7 -5 2 -7 -7 -5 -21 2 -18 -2 -24
-11 -21 -9 4 -12 -3 -10 -24 2 -18 -1 -26 -8 -22 -5 3 -7 1 -3 -5 3 -6 1 -14
-5 -18 -9 -5 -7 -11 6 -21 11 -7 14 -13 8 -13 -7 0 -15 5 -18 10 -11 17 -24
11 -20 -10 2 -11 0 -20 -6 -20 -7 0 -7 29 1 50 2 3 2 8 1 12 0 4 9 13 20 19
15 7 18 13 10 18 -8 5 -5 15 9 34 12 15 18 27 13 27 -4 0 -1 6 8 13 9 7 19 21
21 32 2 11 10 19 17 17 8 -2 11 3 8 11 -3 8 5 30 18 50 13 19 21 37 18 41 -3
3 2 8 11 12 9 3 14 10 11 14 -2 4 5 18 18 32 23 25 24 26 39 71 6 15 14 27 19
27 5 0 8 3 7 8 -4 12 26 52 38 52 6 0 17 -7 24 -15 9 -11 16 -13 23 -6 7 7 6
15 -2 25 -13 15 -7 36 8 36 5 0 14 -7 21 -15z m487 9 c-3 -3 -12 -4 -19 -1 -8
3 -5 6 6 6 11 1 17 -2 13 -5z m163 -15 c0 -6 -4 -7 -10 -4 -5 3 -10 11 -10 16
0 6 5 7 10 4 6 -3 10 -11 10 -16z m34 6 c3 -8 1 -15 -4 -15 -6 0 -10 7 -10 15
0 8 2 15 4 15 2 0 6 -7 10 -15z m-214 -9 c0 -3 -4 -8 -10 -11 -5 -3 -10 -1
-10 4 0 6 5 11 10 11 6 0 10 -2 10 -4z m100 -48 c0 -5 -4 -8 -10 -8 -5 0 -9 3
-8 8 3 15 -15 42 -25 35 -6 -4 -7 -1 -2 7 6 10 12 7 26 -11 10 -13 19 -27 19
-31z m52 42 c1 -3 -3 -14 -10 -25 -6 -11 -12 -15 -12 -9 0 5 5 15 11 21 9 9 7
12 -10 10 -15 -1 -20 -6 -16 -17 5 -11 3 -12 -6 -3 -6 6 -9 16 -5 21 6 9 45
11 48 2z m-106 -21 c3 -6 1 -16 -5 -22 -9 -9 -10 -7 -5 7 5 13 4 17 -4 12 -7
-4 -12 -2 -12 3 0 14 17 14 26 0z m154 1 c0 -5 -4 -10 -10 -10 -5 0 -10 5 -10
10 0 6 5 10 10 10 6 0 10 -4 10 -10z m40 6 c0 -2 -7 -7 -16 -10 -8 -3 -12 -2
-9 4 6 10 25 14 25 6z m-67 -47 c-4 -4 -15 -4 -23 2 -12 9 -12 10 3 5 15 -5
17 -2 12 17 -5 20 -5 20 6 4 6 -11 7 -23 2 -28z m83 -14 c-2 -5 -9 -9 -15 -7
-6 1 -11 -8 -11 -20 0 -20 1 -20 18 -5 10 10 23 17 28 17 5 0 3 -4 -5 -9 -8
-5 -15 -21 -17 -35 -1 -15 2 -24 7 -21 5 4 12 -1 15 -10 5 -12 9 -13 20 -4 22
18 23 7 2 -13 -10 -10 -18 -13 -18 -7 0 5 -4 7 -10 4 -6 -3 -7 1 -4 10 4 10 2
15 -7 13 -9 -2 -13 5 -12 19 2 14 -2 22 -10 20 -7 -1 -12 8 -12 23 0 15 5 24
13 23 14 -3 14 -1 6 21 -3 9 -11 13 -17 9 -6 -4 -7 -1 -2 7 6 10 11 9 22 -6 7
-10 12 -23 9 -29z m-42 20 c3 -8 1 -15 -4 -15 -6 0 -10 7 -10 15 0 8 2 15 4
15 2 0 6 -7 10 -15z m-144 -5 c0 -5 -8 -10 -17 -10 -15 0 -16 2 -3 10 19 12
20 12 20 0z m60 6 c0 -3 -4 -8 -10 -11 -5 -3 -10 -1 -10 4 0 6 5 11 10 11 6 0
10 -2 10 -4z m-30 -25 c0 -5 -8 -15 -17 -22 -16 -12 -17 -12 -6 2 7 9 10 19 6
22 -3 4 -1 7 5 7 7 0 12 -4 12 -9z m55 -1 c3 -6 -1 -7 -9 -4 -18 7 -21 14 -7
14 6 0 13 -4 16 -10z m41 -19 c-9 -14 -26 -14 -26 0 0 5 5 7 12 3 8 -5 9 -1 4
12 -5 14 -4 16 5 7 6 -6 8 -16 5 -22z m-60 -6 c-1 -8 -6 -18 -11 -22 -4 -5 -5
-2 0 6 6 11 4 13 -11 8 -18 -7 -18 -7 0 8 24 18 25 18 22 0z m83 -45 c0 -10
-3 -8 -9 5 -12 27 -12 43 0 25 5 -8 9 -22 9 -30z m-143 10 c0 -12 -4 -16 -9
-11 -5 5 -6 14 -3 20 10 15 12 14 12 -9z m224 -4 c-7 -7 -13 -7 -20 0 -6 6 -3
10 10 10 13 0 16 -4 10 -10z m-120 -6 c0 -5 -5 -10 -11 -10 -5 0 -7 5 -4 10 3
6 8 10 11 10 2 0 4 -4 4 -10z m-30 -4 c0 -2 -9 -6 -20 -9 -11 -3 -18 -1 -14 4
5 9 34 13 34 5z m-12 -28 c-2 -7 3 -12 10 -10 8 1 11 -2 7 -9 -5 -8 -10 -8
-18 0 -15 15 -30 14 -21 -1 5 -7 3 -8 -6 -3 -10 6 -9 11 5 22 23 16 26 16 23
1z m92 -25 c-1 -4 7 -11 17 -15 17 -7 17 -8 0 -5 -10 1 -17 6 -17 11 1 5 -5
13 -14 18 -9 5 -16 14 -16 19 0 6 7 4 15 -5 9 -8 15 -19 15 -23z m15 27 c3 -6
-1 -7 -9 -4 -18 7 -21 14 -7 14 6 0 13 -4 16 -10z m58 -34 c-15 -19 -32 -35
-37 -35 -5 -1 -3 5 3 13 10 11 8 17 -6 25 -10 6 -13 11 -6 11 6 0 15 -5 18
-11 5 -7 14 -3 26 10 32 34 33 24 2 -13z m-108 14 c3 -6 -1 -7 -9 -4 -18 7
-21 14 -7 14 6 0 13 -4 16 -10z m149 -11 c-3 -6 -1 -14 5 -18 7 -4 -2 -8 -18
-8 l-30 0 21 19 c24 20 32 23 22 7z m-764 -9 c0 -5 -2 -10 -4 -10 -3 0 -8 5
-11 10 -3 6 -1 10 4 10 6 0 11 -4 11 -10z m590 0 c-8 -5 -19 -10 -25 -10 -5 0
-3 5 5 10 8 5 20 10 25 10 6 0 3 -5 -5 -10z m48 -25 c-3 -3 -9 2 -12 12 -6 14
-5 15 5 6 7 -7 10 -15 7 -18z m-653 5 c3 -5 2 -10 -4 -10 -5 0 -13 5 -16 10
-3 6 -2 10 4 10 5 0 13 -4 16 -10z m630 -21 c1 -11 -3 -23 -8 -26 -6 -3 -7 -1
-3 5 3 5 0 13 -6 16 -11 5 -11 7 0 12 6 3 9 11 5 17 -3 7 -2 9 2 4 5 -4 9 -17
10 -28z m55 1 c0 -5 -4 -10 -10 -10 -5 0 -10 5 -10 10 0 6 5 10 10 10 6 0 10
-4 10 -10z m55 0 c-3 -5 -1 -10 4 -10 6 0 11 4 11 9 0 15 50 8 59 -8 5 -8 7
-21 3 -29 -4 -11 -2 -13 9 -7 12 7 12 6 0 -9 -13 -16 -13 -17 3 -14 11 2 23
-6 29 -17 6 -11 24 -39 39 -62 32 -47 57 -133 52 -178 -6 -64 -14 -98 -25
-111 -6 -8 -8 -14 -3 -14 5 0 5 -4 -1 -8 -5 -4 -15 -16 -22 -27 -6 -11 -16
-19 -23 -17 -6 1 -9 -1 -6 -6 11 -19 -104 -99 -124 -87 -6 3 -10 2 -10 -3 0
-5 -11 -12 -25 -14 -16 -3 -22 -1 -18 6 3 6 0 5 -8 -1 -16 -16 -33 -17 -23 -1
5 7 3 8 -7 3 -18 -12 -100 -14 -121 -3 -11 5 -18 5 -18 -1 0 -6 -7 -8 -15 -5
-8 4 -12 10 -9 15 3 5 0 9 -5 9 -6 0 -11 -7 -11 -16 0 -14 -2 -15 -17 -3 -9 8
-14 9 -10 3 3 -6 0 -11 -8 -11 -10 0 -11 5 -6 16 6 9 3 23 -6 38 -10 15 -11
23 -4 23 6 0 17 -11 23 -25 9 -19 14 -22 25 -14 16 14 17 29 2 29 -5 0 -7 -4
-4 -10 3 -5 2 -10 -2 -10 -5 0 -14 9 -20 19 -11 18 -9 20 15 19 44 -1 54 1 47
12 -3 6 -2 10 3 10 17 0 22 -13 10 -27 -6 -7 -8 -16 -4 -20 3 -3 6 -1 6 6 0 6
15 19 33 27 32 15 32 15 3 9 -26 -6 -28 -4 -17 9 9 11 10 16 2 16 -6 0 -11 -5
-11 -11 0 -8 -5 -8 -15 1 -22 18 -18 28 10 25 14 -2 25 1 25 6 0 5 -4 9 -10 9
-5 0 -7 8 -4 18 5 14 4 14 -4 2 -6 -8 -8 -18 -6 -22 3 -4 1 -8 -5 -8 -5 0 -11
6 -14 13 -3 7 -9 2 -14 -12 -7 -17 -12 -21 -17 -12 -5 8 0 18 13 27 12 9 18
20 15 26 -4 7 -2 8 4 4 7 -4 18 -4 25 1 6 4 17 8 22 8 6 0 10 8 10 17 0 10 9
25 20 33 11 9 14 13 6 9 -9 -5 -12 -3 -7 5 4 6 3 18 -3 25 -9 10 -8 15 4 20 9
3 13 11 9 17 -5 8 -3 9 6 4 10 -6 12 -4 7 9 -4 9 -3 15 1 13 12 -7 45 30 33
38 -17 10 -13 38 4 32 8 -4 17 -2 20 3 6 10 -9 14 -30 10 -5 -1 -4 4 3 11 14
15 16 33 3 24 -11 -6 -6 33 5 44 3 3 4 -3 2 -13 -1 -10 3 -21 10 -23 8 -3 10
2 6 14 -4 13 -3 14 4 5 5 -8 13 -14 17 -14 13 0 27 31 19 44 -4 6 -3 8 3 5 6
-4 14 0 17 9 4 12 2 15 -9 10 -8 -3 -15 -1 -15 5 0 7 10 9 26 5 17 -5 23 -3
19 4 -3 5 -12 10 -19 10 -8 0 -19 7 -26 15 -8 9 -8 15 -2 15 6 0 12 -5 14 -10
2 -6 13 -12 25 -13 12 0 19 -5 17 -9 -3 -4 0 -8 6 -8 6 0 10 8 8 17 -2 10 -12
18 -22 18 -11 0 -21 6 -23 13 -3 6 0 12 7 12 6 0 8 -4 5 -10z m-88 -42 c2 -17
0 -19 -7 -8 -5 8 -6 18 -4 22 8 12 10 10 11 -14z m43 -1 c0 -7 -4 -6 -10 3 -8
12 -10 12 -10 1 0 -8 -3 -12 -6 -8 -9 9 6 28 17 22 5 -4 9 -12 9 -18z m-930
-22 c-6 -8 -9 -19 -5 -24 3 -7 0 -8 -9 -5 -17 6 -22 -11 -7 -20 8 -5 8 -27 1
-46 -1 -3 -2 -9 -1 -13 1 -4 -8 -3 -20 4 -12 6 -19 7 -15 1 3 -5 -1 -15 -9
-22 -14 -12 -10 -44 6 -35 4 3 13 -4 19 -15 6 -11 15 -18 20 -15 5 3 12 0 16
-6 4 -7 3 -9 -4 -5 -6 3 -15 -1 -20 -11 -8 -14 -13 -15 -25 -5 -10 8 -18 9
-21 3 -4 -5 -2 -12 4 -16 7 -4 7 -12 0 -24 -5 -10 -7 -21 -4 -23 3 -3 -4 -8
-16 -11 -11 -3 -18 -2 -15 3 5 7 -34 47 -41 43 -2 -2 -10 -3 -16 -3 -7 0 -5 5
5 11 9 6 14 15 11 21 -5 8 -1 9 10 5 10 -4 22 -5 26 -2 14 8 0 36 -14 28 -6
-3 -3 3 7 14 9 11 14 23 10 28 -5 4 -2 5 5 1 6 -4 12 -2 12 3 0 6 -6 11 -12
11 -7 0 -5 5 5 11 9 6 15 15 11 20 -3 5 -2 9 3 8 23 -4 31 3 28 28 -3 32 21
68 48 70 15 2 16 -1 7 -12z m930 -5 c0 -5 -8 -7 -17 -4 -16 5 -15 3 1 -10 24
-20 18 -29 -8 -11 -10 8 -15 18 -11 24 8 14 35 14 35 1z m-777 -115 c-3 -9 -8
-14 -10 -11 -3 3 -2 9 2 15 9 16 15 13 8 -4z m6 -41 c12 8 9 -19 -4 -31 -9 -8
-12 -3 -12 21 0 17 2 25 5 18 2 -6 7 -10 11 -8z m27 -59 c1 -8 -1 -15 -6 -15
-10 0 -20 26 -13 34 8 8 16 -1 19 -19z m18 -40 c3 -8 1 -15 -3 -15 -5 0 -11 7
-15 15 -3 8 -1 15 3 15 5 0 11 -7 15 -15z m24 -10 c-3 -3 -9 2 -12 12 -6 14
-5 15 5 6 7 -7 10 -15 7 -18z m98 -37 c4 -7 3 -8 -4 -4 -7 4 -12 2 -12 -3 0
-6 -5 -11 -11 -11 -8 0 -8 5 1 15 15 18 17 18 26 3z m72 4 c15 12 16 11 3 -4
-14 -19 -32 -15 -30 5 0 8 2 8 6 -1 4 -10 8 -10 21 0z m132 4 c0 -3 -4 -8 -10
-11 -5 -3 -10 -1 -10 4 0 6 5 11 10 11 6 0 10 -2 10 -4z m69 -47 c-8 -5 -18
-7 -23 -6 -14 5 -19 27 -6 27 6 0 8 -4 5 -10 -3 -5 -2 -10 4 -10 15 0 23 18
11 25 -5 3 -10 11 -10 18 0 6 7 1 16 -12 14 -19 14 -25 3 -32z m61 41 c-8 -5
-19 -10 -25 -10 -5 0 -3 5 5 10 8 5 20 10 25 10 6 0 3 -5 -5 -10z m-103 -7
c-9 -2 -14 -9 -11 -15 4 -7 2 -8 -5 -4 -15 10 -4 26 17 25 15 -1 15 -2 -1 -6z
m-82 -23 c-3 -5 -12 -10 -18 -10 -7 0 -6 4 3 10 19 12 23 12 15 0z m52 -20
c-1 -11 -5 -20 -9 -20 -10 0 -10 4 -2 24 8 22 13 20 11 -4z m141 -58 c12 10
14 10 8 1 -7 -13 4 -17 33 -14 8 2 10 -2 5 -11 -6 -10 -4 -10 9 1 17 14 23 5
9 -14 -9 -12 -38 -13 -49 -1 -5 5 -2 6 7 1 8 -5 12 -4 7 0 -12 13 -36 15 -44
3 -3 -7 -1 -8 5 -4 7 4 12 3 12 -2 0 -6 -6 -12 -14 -15 -9 -4 -12 -14 -9 -29
4 -13 2 -20 -3 -15 -5 5 -10 13 -10 18 -1 5 -2 14 -3 20 0 5 -6 7 -12 3 -8 -5
-8 -9 1 -14 16 -10 15 -22 -5 -33 -29 -16 -38 14 -12 41 12 13 22 27 22 30 0
4 6 6 13 4 10 -2 12 3 8 20 -3 13 -3 17 0 10 5 -10 9 -10 22 0z"/>
<path d="M1317 2043 l23 -4 -25 -33 c-14 -18 -22 -36 -17 -41 4 -4 -1 -5 -10
-2 -10 4 -18 2 -18 -3 0 -6 6 -10 14 -10 16 0 29 16 32 38 2 8 10 22 18 31 19
20 12 32 -18 30 -20 -2 -19 -2 1 -6z"/>
<path d="M1380 2039 c0 -5 4 -8 9 -5 10 7 25 -24 16 -33 -3 -3 -10 1 -14 8 -5
8 -11 9 -15 3 -8 -13 19 -23 42 -15 15 6 15 5 3 -10 -12 -15 -16 -15 -43 -1
-22 12 -27 19 -19 27 6 6 11 15 11 20 0 5 -10 -2 -21 -17 -12 -15 -19 -30 -15
-33 3 -4 6 -1 6 6 0 7 5 9 11 5 7 -4 2 -15 -15 -29 -14 -12 -26 -26 -26 -30 0
-4 14 5 31 19 23 20 35 24 48 16 12 -6 22 -5 29 2 7 7 12 8 12 2 0 -5 -5 -15
-12 -22 -9 -9 -8 -16 5 -30 15 -17 15 -19 -1 -36 -9 -9 -12 -16 -7 -15 22 4
31 -2 32 -20 1 -14 -4 -19 -18 -18 -10 1 -19 5 -19 10 0 4 -5 5 -10 2 -6 -4
-17 -2 -25 5 -9 7 -15 8 -20 0 -3 -5 -3 -10 1 -10 3 0 1 -6 -5 -14 -6 -7 -22
-12 -35 -11 -18 2 -23 -2 -22 -18 0 -12 -5 -22 -11 -23 -26 -3 -27 -4 -15 -16
10 -10 15 -10 22 2 8 13 10 13 10 1 0 -11 4 -9 15 5 8 10 15 16 15 12 0 -5 8
0 18 10 12 11 15 20 8 25 -6 5 0 5 14 1 23 -6 24 -6 10 12 -14 17 -13 18 1 7
9 -7 20 -9 25 -5 4 4 2 -1 -5 -10 -7 -10 -10 -18 -6 -18 4 0 2 -6 -5 -14 -19
-24 29 -16 69 11 22 15 38 20 45 14 14 -12 30 -2 34 21 2 12 -2 16 -13 12 -8
-3 -12 -11 -8 -18 4 -6 -5 -3 -20 7 -27 17 -28 17 -25 0 2 -10 -3 -18 -10 -18
-8 0 -20 -8 -27 -18 -16 -23 -30 -5 -16 20 8 14 10 14 11 3 0 -12 2 -12 15 1
9 8 17 24 19 35 3 10 8 28 12 39 7 18 6 18 -9 6 -9 -7 -14 -17 -11 -22 3 -5
-2 -6 -11 -2 -12 4 -13 8 -5 13 7 4 10 13 6 19 -5 7 -1 9 9 5 10 -4 15 -2 13
7 -2 8 6 14 19 15 13 1 20 -3 16 -9 -3 -6 -1 -7 6 -3 6 4 9 12 6 17 -4 5 -1 9
5 9 7 0 10 -7 6 -17 -6 -17 -5 -17 8 0 10 13 15 15 19 5 2 -7 7 -10 11 -7 11
10 -58 77 -76 74 -10 -2 -18 2 -18 8 0 5 -3 7 -7 4 -3 -4 -15 1 -27 10 -12 11
-9 4 9 -20 15 -21 26 -39 24 -41 -5 -5 -36 17 -36 24 1 3 -7 17 -17 33 -19 27
-36 36 -36 16z m128 -51 c-2 -4 6 -14 17 -23 14 -10 15 -13 4 -9 -10 3 -20 0
-24 -5 -3 -6 -10 -9 -15 -6 -5 3 -20 -1 -34 -10 -17 -11 -26 -13 -31 -5 -9 15
15 44 28 31 5 -5 16 -7 24 -4 12 5 11 8 -2 23 -14 16 -13 17 10 16 14 -1 24
-5 23 -8z m-164 -190 c-3 -4 -12 -4 -21 -1 -10 4 -14 2 -9 -5 3 -6 2 -13 -3
-16 -7 -5 -8 15 -2 31 1 1 10 1 20 0 11 0 18 -5 15 -9z"/>
<path d="M1490 1975 c5 -7 6 -16 2 -21 -4 -5 -3 -5 2 -1 15 12 15 34 0 34 -9
0 -11 -4 -4 -12z"/>
<path d="M1435 1949 c-4 -6 -4 -13 -1 -16 3 -4 6 -1 6 6 0 7 5 9 12 5 7 -4 8
-3 4 4 -9 15 -13 15 -21 1z"/>
<path d="M1260 2036 c0 -2 7 -6 15 -10 8 -3 15 -1 15 4 0 6 -7 10 -15 10 -8 0
-15 -2 -15 -4z"/>
<path d="M1195 2001 c-3 -5 -2 -12 3 -15 5 -3 9 1 9 9 0 17 -3 19 -12 6z"/>
<path d="M1260 2005 c0 -7 30 -13 34 -7 3 4 -4 9 -15 9 -10 1 -19 0 -19 -2z"/>
<path d="M1250 1979 c0 -5 5 -7 10 -4 6 3 10 8 10 11 0 2 -4 4 -10 4 -5 0 -10
-5 -10 -11z"/>
<path d="M1196 1958 c5 -8 1 -9 -12 -4 -14 5 -16 4 -7 -5 6 -6 16 -8 22 -5 14
9 14 26 0 26 -5 0 -7 -5 -3 -12z"/>
<path d="M1247 1941 c-3 -12 -1 -19 4 -16 5 3 18 1 29 -5 13 -7 20 -7 20 0 0
5 -7 10 -15 10 -7 0 -18 7 -23 16 -8 14 -10 13 -15 -5z"/>
<path d="M1150 1935 c0 -8 4 -15 10 -15 5 0 7 7 4 15 -4 8 -8 15 -10 15 -2 0
-4 -7 -4 -15z"/>
<path d="M1210 1926 c0 -2 7 -9 15 -16 13 -11 14 -10 9 4 -5 14 -24 23 -24 12z"/>
<path d="M1477 1918 c13 -17 13 -48 -1 -48 -6 0 -3 -7 6 -16 12 -12 20 -13 35
-5 15 7 23 7 32 -2 9 -9 16 -6 32 13 10 14 17 18 14 10 -4 -11 1 -16 14 -17
18 -2 19 1 8 18 -6 10 -15 19 -19 19 -5 0 -17 9 -29 21 -16 16 -23 18 -35 8
-8 -6 -14 -8 -14 -3 0 5 -4 2 -10 -6 -8 -12 -10 -12 -16 3 -3 9 -11 17 -16 17
-7 0 -7 -4 -1 -12z m63 -18 c-13 -24 5 -28 18 -4 8 15 10 15 15 0 4 -10 3 -14
-2 -11 -5 3 -12 1 -16 -5 -3 -5 -1 -10 5 -10 6 0 8 -5 4 -11 -4 -6 -9 -7 -13
-2 -8 12 -53 14 -46 2 4 -5 2 -9 -4 -9 -5 0 -9 9 -8 20 1 18 8 24 23 18 3 -2
10 5 15 15 14 24 22 22 9 -3z"/>
<path d="M1117 1910 c7 -8 20 -15 29 -16 9 -1 13 1 9 4 -4 4 -10 7 -13 7 -4 0
-14 4 -22 9 -12 7 -13 6 -3 -4z"/>
<path d="M1170 1900 c0 -5 5 -10 10 -10 6 0 10 5 10 10 0 6 -4 10 -10 10 -5 0
-10 -4 -10 -10z"/>
<path d="M1113 1875 c0 -8 4 -15 9 -15 4 0 8 4 8 9 0 6 -4 12 -8 15 -5 3 -9
-1 -9 -9z"/>
<path d="M1094 1863 c3 -18 -1 -23 -17 -24 -19 -1 -19 -2 -3 -6 25 -7 36 8 25
32 -9 18 -9 18 -5 -2z"/>
<path d="M1157 1866 c-4 -10 -3 -15 3 -11 6 3 10 1 10 -6 0 -7 3 -10 6 -6 3 3
2 13 -4 22 -8 16 -9 16 -15 1z"/>
<path d="M1190 1870 c0 -5 5 -10 10 -10 6 0 10 5 10 10 0 6 -4 10 -10 10 -5 0
-10 -4 -10 -10z"/>
<path d="M1583 1828 c1 -10 6 -18 12 -18 6 0 11 8 12 18 1 10 -5 19 -12 19 -7
0 -13 -9 -12 -19z"/>
<path d="M1543 1811 c-1 -13 3 -18 13 -14 8 3 26 -8 43 -26 28 -30 49 -42 36
-21 -4 6 -2 17 5 25 14 17 -4 30 -40 30 -15 0 -24 5 -22 13 1 6 -6 12 -16 12
-10 0 -18 -8 -19 -19z m87 -25 c0 -3 -4 -8 -10 -11 -5 -3 -10 -1 -10 4 0 6 5
11 10 11 6 0 10 -2 10 -4z"/>
<path d="M1361 1791 c-7 -5 -9 -11 -5 -14 5 -3 15 1 22 9 14 16 5 18 -17 5z"/>
<path d="M1226 1729 c21 -23 23 -23 20 -2 -2 9 -11 17 -20 19 -17 2 -17 2 0
-17z"/>
<path d="M1162 1712 c-10 -3 -8 -8 5 -17 17 -13 17 -14 1 -20 -10 -4 -15 -11
-12 -16 5 -9 36 15 34 27 -1 4 4 10 10 14 14 9 -18 19 -38 12z"/>
<path d="M1106 1652 c-3 -5 1 -9 9 -9 8 0 12 4 9 9 -3 4 -7 8 -9 8 -2 0 -6 -4
-9 -8z"/>
<path d="M1033 1589 c1 -11 6 -17 12 -15 5 2 9 9 7 15 -1 7 2 10 8 6 8 -5 8
-11 1 -19 -6 -7 -8 -16 -4 -19 10 -11 33 -8 33 4 0 5 -4 7 -10 4 -6 -3 -7 1
-3 10 4 13 8 14 14 4 4 -8 11 -10 15 -6 9 9 1 18 -23 22 -10 2 -18 4 -18 5 0
1 -8 3 -17 5 -11 2 -16 -3 -15 -16z"/>
<path d="M1094 1544 c-31 -37 -39 -43 -46 -29 -5 8 -13 13 -19 10 -5 -3 -6 1
-3 9 3 9 10 16 16 16 5 0 6 -5 2 -12 -5 -7 -3 -8 6 -3 9 5 11 4 6 -3 -8 -13 6
-17 17 -5 4 3 -2 12 -13 20 -14 10 -25 11 -37 4 -10 -6 -15 -11 -10 -11 4 0 1
-13 -7 -29 -11 -21 -21 -28 -40 -26 -31 4 -53 -19 -37 -38 8 -11 7 -18 -7 -30
-9 -8 -21 -17 -27 -19 -5 -2 -10 -9 -11 -16 -1 -6 1 -10 6 -7 4 3 13 -1 19 -9
9 -11 4 -20 -27 -45 -32 -25 -39 -36 -37 -61 1 -16 -4 -35 -11 -41 -12 -10
-10 -17 11 -45 24 -32 26 -62 3 -48 -15 9 -60 -17 -54 -32 3 -7 -2 -18 -9 -24
-8 -7 -13 -16 -10 -20 3 -5 1 -11 -5 -15 -6 -4 -8 -11 -5 -16 10 -15 -3 -11
-25 8 -11 10 -24 18 -28 18 -4 0 -14 4 -22 10 -13 8 -13 7 -1 -8 7 -9 10 -17
6 -17 -4 0 -2 -7 5 -15 7 -8 9 -15 4 -15 -5 0 0 -7 10 -15 14 -11 16 -15 5
-15 -10 -1 -9 -3 4 -11 9 -6 15 -15 11 -21 -4 -5 5 -2 19 7 14 9 28 16 31 16
19 -3 26 0 21 9 -4 7 -13 7 -25 0 -16 -9 -19 -8 -14 7 3 10 -1 7 -9 -6 -9 -15
-17 -20 -21 -12 -4 6 -2 11 3 11 6 0 11 5 11 10 0 6 -3 9 -7 9 -26 -4 -35 2
-24 14 6 8 7 18 3 22 -4 5 -2 5 5 1 7 -4 10 -13 7 -21 -6 -15 12 -15 35 -1 10
7 12 6 6 -4 -5 -9 -4 -11 4 -6 6 4 9 12 6 17 -3 5 0 7 7 6 7 -2 9 -2 5 1 -4 2
0 10 10 18 17 13 17 14 -2 8 -16 -5 -17 -4 -5 4 8 6 18 8 22 6 7 -5 12 10 9
29 0 4 3 7 9 7 5 0 10 5 10 11 0 5 -4 8 -9 4 -5 -3 -12 -1 -15 4 -10 15 25 6
36 -10 8 -11 9 -9 4 6 -6 19 -5 19 7 3 17 -22 30 -12 16 13 -7 14 -6 17 4 14
29 -12 16 -51 -15 -46 -17 2 -6 -17 16 -29 16 -8 23 -19 21 -31 -2 -11 1 -19
7 -19 5 0 7 8 4 18 -6 16 -5 16 7 0 8 -10 18 -14 22 -10 5 4 5 1 1 -6 -4 -7
-11 -10 -16 -7 -5 3 -8 -4 -7 -15 1 -10 7 -22 15 -25 7 -3 10 0 7 6 -4 5 -1
17 6 26 11 13 9 19 -14 39 -16 13 -25 24 -21 24 5 0 3 5 -3 11 -16 16 -5 43
12 29 9 -8 14 -7 18 4 3 8 -1 13 -11 12 -10 0 -16 5 -14 13 2 8 -2 18 -9 22
-18 11 -20 39 -4 45 8 3 21 16 29 29 14 21 14 23 -10 23 -18 0 -22 -4 -15 -11
6 -6 11 -15 11 -20 0 -5 -9 1 -19 14 l-20 24 2 -22 c1 -13 6 -23 12 -23 5 0 2
-7 -7 -14 -10 -7 -14 -17 -10 -22 4 -4 -1 -2 -10 5 -15 11 -18 11 -18 1 0 -8
-3 -10 -6 -7 -10 10 17 38 29 30 6 -4 7 -1 1 8 -13 21 -14 39 -2 39 6 0 8 6 5
13 -3 7 1 21 9 31 7 11 11 23 8 27 -3 5 1 6 9 3 11 -4 14 2 12 20 -2 17 1 24
7 20 7 -4 8 -2 4 4 -15 24 2 11 19 -14 9 -15 13 -24 7 -20 -5 3 -16 -2 -23
-11 -12 -15 -12 -16 3 -10 12 4 15 2 11 -9 -3 -7 0 -14 7 -14 6 0 9 4 5 9 -3
5 1 16 10 24 13 13 13 17 0 27 -8 7 -13 16 -10 20 7 11 -24 22 -37 13 -7 -3
-8 -1 -4 6 4 6 15 10 24 9 9 -2 17 2 17 9 0 19 14 26 28 15 11 -9 13 -5 13 19
0 20 -4 28 -12 25 -8 -3 -16 -1 -19 5 -4 5 -3 9 2 8 22 -4 33 3 33 18 0 14 3
13 16 -5 l16 -23 54 56 c30 31 54 58 54 60 0 16 -24 -1 -56 -41z m-94 -109 c0
-1 -8 -1 -17 0 -29 2 -56 21 -49 34 5 7 16 4 37 -11 16 -12 29 -22 29 -23z
m-46 -21 c3 -9 2 -12 -5 -9 -12 8 -41 -14 -33 -26 9 -16 -3 -10 -17 8 -8 9 -9
14 -3 10 6 -4 19 2 29 13 22 24 21 24 29 4z m-66 -116 c-7 -13 -13 -26 -14
-30 -1 -5 -3 -10 -4 -13 -1 -3 -3 -13 -4 -22 -2 -26 -16 -44 -27 -37 -7 4 -5
12 4 22 8 10 13 30 12 45 -1 19 5 33 19 42 27 20 29 19 14 -7z m32 -164 c0 -2
-13 2 -30 11 -16 9 -30 18 -30 21 0 2 14 -2 30 -11 17 -9 30 -18 30 -21z m-94
-48 c1 -8 -10 -19 -25 -25 -23 -10 -24 -10 -8 3 10 7 17 18 16 22 -1 5 -1 13
0 18 1 13 14 -1 17 -18z m-109 -61 c0 -8 -4 -12 -9 -9 -5 3 -6 10 -3 15 9 13
12 11 12 -6z"/>
<path d="M940 1466 c0 -2 8 -10 18 -17 15 -13 16 -12 3 4 -13 16 -21 21 -21
13z"/>
<path d="M930 1339 c0 -5 5 -7 10 -4 6 3 10 8 10 11 0 2 -4 4 -10 4 -5 0 -10
-5 -10 -11z"/>
<path d="M914 1301 c3 -5 -1 -11 -9 -15 -8 -3 -12 -12 -9 -21 5 -12 10 -13 20
-4 8 6 11 15 8 20 -3 5 0 9 6 9 6 0 8 5 5 10 -3 6 -11 10 -16 10 -6 0 -8 -4
-5 -9z"/>
<path d="M987 1104 c-4 -4 -2 -13 5 -21 8 -11 7 -12 -5 -8 -8 4 -18 2 -21 -4
-10 -16 10 -21 29 -7 13 9 15 17 8 30 -5 9 -12 13 -16 10z"/>
<path d="M835 1056 c-10 -17 -19 -34 -19 -38 -1 -4 -10 -14 -21 -23 -11 -9
-15 -14 -9 -11 7 3 17 0 23 -7 8 -10 5 -18 -10 -30 -11 -10 -17 -22 -14 -27 3
-6 2 -10 -3 -10 -5 0 -9 -6 -9 -14 0 -15 34 -15 58 -1 12 7 12 6 1 -7 -9 -11
-10 -18 -2 -23 13 -8 32 4 25 16 -13 20 44 -5 57 -25 5 -8 8 -7 8 2 0 6 5 12
11 12 5 0 7 -6 3 -12 -6 -10 -4 -10 8 0 11 9 18 10 23 2 3 -6 10 -8 15 -5 4 2
20 -5 34 -16 15 -12 30 -19 33 -16 2 3 -4 12 -16 19 -26 16 -27 25 -3 25 18 0
64 -31 57 -39 -2 -2 8 -4 23 -3 15 0 26 6 25 12 -2 7 6 11 17 10 11 -1 20 -4
20 -7 0 -3 9 -6 21 -7 19 -2 18 0 -4 18 -29 22 -41 25 -32 7 4 -7 -2 -4 -12 7
-18 20 -60 35 -50 18 8 -12 -10 -39 -20 -30 -4 5 -1 13 7 18 12 9 12 10 -3 5
-10 -3 -15 -2 -12 4 3 5 -4 8 -15 7 -11 -1 -20 -6 -20 -12 0 -6 -3 -7 -8 0
-13 19 -35 17 -28 -2 5 -16 4 -15 -9 1 -8 11 -15 15 -15 10 0 -6 -6 -11 -14
-11 -8 0 -15 3 -14 6 0 3 0 12 -1 20 -1 15 -16 6 -16 -10 0 -12 -20 -12 -21 1
-3 23 -5 24 -13 11 -12 -19 -32 -5 -24 17 6 15 5 15 -10 3 -14 -11 -20 -11
-33 0 -13 11 -15 11 -12 -2 1 -7 -2 -15 -7 -16 -13 -4 -13 19 0 33 7 8 13 7
22 -5 9 -12 14 -13 23 -4 16 15 2 36 -18 28 -9 -3 -13 -3 -10 1 4 4 3 16 -3
27 -9 15 -8 18 2 12 8 -6 10 -4 4 5 -5 8 -4 11 3 6 7 -4 10 1 7 14 -2 11 0 18
6 15 5 -4 6 -11 3 -17 -4 -6 -1 -9 7 -6 8 3 14 11 14 18 0 7 7 15 15 17 12 4
12 3 2 -5 -11 -7 -10 -11 4 -16 9 -3 19 -4 22 -1 3 3 0 5 -6 5 -7 0 -11 3 -9
8 1 4 -7 16 -19 28 l-21 21 -18 -31z m29 5 c3 -5 -1 -11 -9 -14 -9 -4 -12 -1
-8 9 6 16 10 17 17 5z m-14 -121 c0 -5 -4 -10 -10 -10 -5 0 -10 5 -10 10 0 6
5 10 10 10 6 0 10 -4 10 -10z m269 -91 c-12 -7 -12 -9 0 -9 8 0 12 -3 8 -6
-10 -10 -26 6 -21 21 4 8 11 12 16 9 6 -4 5 -10 -3 -15z"/>
<path d="M1625 1070 c-4 -6 -12 -7 -18 -3 -7 4 -6 0 2 -10 13 -16 36 -14 26 3
-3 4 1 11 7 13 9 4 10 6 1 6 -6 1 -15 -4 -18 -9z"/>
<path d="M1031 1043 c-5 -10 -18 -18 -28 -18 -12 0 -17 -6 -15 -18 2 -10 -3
-16 -10 -15 -8 2 -12 -5 -11 -19 2 -16 -3 -21 -17 -20 -18 1 -24 10 -21 29 0
4 -10 15 -24 24 -25 16 -50 11 -39 -8 5 -7 1 -9 -9 -5 -27 10 -29 -10 -3 -36
16 -16 27 -21 30 -14 2 7 5 5 5 -3 1 -9 -5 -22 -11 -30 -11 -12 -10 -12 3 -2
11 8 19 8 26 1 8 -8 13 -8 17 0 10 15 -3 33 -16 25 -6 -4 -8 -2 -4 4 3 5 0 12
-6 15 -10 3 -10 8 1 18 12 12 13 12 6 0 -6 -10 -4 -12 5 -6 8 5 11 4 7 -2 -4
-6 -1 -16 7 -22 8 -7 16 -8 18 -4 3 4 3 2 2 -4 -4 -17 6 -43 16 -43 4 0 10 7
13 14 4 10 1 13 -9 9 -7 -3 -14 0 -14 7 0 6 5 8 12 4 7 -4 8 -3 4 4 -5 8 -1
10 10 5 14 -5 16 -3 11 10 -15 37 -19 52 -10 42 14 -17 36 -17 30 -1 -9 23 13
31 31 11 10 -10 12 -15 5 -11 -6 3 -14 2 -18 -4 -3 -5 -1 -10 4 -10 6 0 10 -3
10 -7 -3 -19 2 -34 9 -29 10 6 9 82 -1 92 -4 4 -2 13 4 21 8 9 8 13 1 13 -6 0
-15 -8 -21 -17z m-129 -48 c3 0 10 -4 15 -9 4 -5 3 -6 -4 -2 -6 3 -18 -3 -26
-14 -12 -17 -16 -18 -20 -6 -4 9 -2 18 4 21 5 4 6 11 3 17 -5 7 -2 8 7 2 8 -5
17 -9 21 -9z"/>
<path d="M1536 1034 c-3 -8 -12 -12 -18 -9 -7 4 -4 -1 7 -10 18 -14 21 -14 32
2 10 13 13 13 13 2 0 -12 2 -12 10 1 6 10 10 11 10 3 0 -7 5 -13 11 -13 8 0 7
5 -1 15 -7 9 -15 13 -18 11 -2 -3 -13 -1 -22 4 -13 7 -20 6 -24 -6z"/>
<path d="M1111 996 c-7 -8 -19 -12 -27 -9 -8 3 -15 -1 -16 -8 0 -8 -2 -18 -2
-24 -4 -30 -36 -48 -36 -20 0 8 -5 15 -11 15 -5 0 -8 4 -5 8 3 5 -1 9 -8 9 -8
0 -13 -10 -13 -21 0 -12 -3 -29 -8 -39 -9 -22 13 -20 32 3 11 13 12 12 7 -5
-4 -14 -3 -16 4 -7 13 18 99 21 87 3 -3 -6 4 -8 16 -6 15 3 19 0 15 -11 -3 -9
-2 -12 5 -9 6 4 19 -1 29 -10 21 -19 42 -12 33 11 -3 9 0 14 8 12 8 -2 13 4
13 15 -1 9 2 17 8 17 5 0 7 3 4 8 -5 9 16 39 29 40 5 0 11 6 14 13 2 7 -1 9
-9 4 -7 -4 -22 -8 -34 -9 -18 -1 -21 -7 -20 -46 1 -25 -1 -39 -3 -32 -4 10 -8
10 -19 1 -12 -9 -12 -15 -2 -27 10 -11 6 -11 -15 3 -17 11 -26 24 -22 33 4 10
0 12 -11 8 -19 -7 -54 10 -54 27 0 8 3 8 9 -2 7 -10 12 -10 30 5 11 10 21 23
21 28 0 5 -9 1 -19 -8 -16 -14 -23 -15 -41 -6 -20 11 -21 10 -15 -9 3 -12 2
-21 -3 -21 -5 0 -9 10 -8 23 1 14 7 21 17 19 17 -2 46 24 37 33 -3 3 -11 -1
-17 -9z"/>
<path d="M1436 963 c-18 -25 -18 -25 1 -14 11 6 23 7 27 4 8 -9 7 9 -2 23 -5
8 -13 4 -26 -13z"/>
<path d="M1380 960 c-6 -11 -9 -20 -8 -21 29 -8 38 -6 29 5 -7 9 -7 16 1 24 9
9 9 12 0 12 -6 0 -16 -9 -22 -20z"/>
<path d="M1339 943 c-8 -10 -9 -14 -2 -10 8 5 11 -1 9 -20 -2 -16 -4 -29 -5
-31 0 -1 -10 2 -21 8 -11 6 -18 15 -15 20 3 4 -4 6 -15 3 -23 -6 -25 -14 -8
-31 9 -9 9 -12 -2 -13 -8 -1 -18 -1 -22 0 -5 0 -8 -3 -8 -9 0 -5 0 -13 0 -17
0 -5 5 -9 10 -9 6 -1 13 -3 18 -4 4 -1 21 -3 37 -5 17 -1 32 -3 35 -5 16 -7
60 -5 60 3 0 5 -8 6 -17 3 -15 -5 -15 -4 1 9 11 8 15 15 10 15 -6 0 -11 6 -12
13 -2 22 -8 42 -20 63 -6 12 -8 24 -5 28 3 3 2 6 -4 6 -6 0 -17 -8 -24 -17z
m34 -30 c4 -3 -1 -15 -10 -26 -17 -18 -17 -19 2 -16 12 3 20 -2 20 -11 2 -22
-15 -41 -29 -32 -6 4 -26 7 -45 7 -39 0 -53 20 -21 30 18 6 19 9 8 23 -11 13
-9 13 13 -1 24 -16 27 -16 43 2 13 15 14 20 4 24 -7 3 -8 6 -2 6 6 1 14 -2 17
-6z"/>
<path d="M1310 859 c0 -5 -4 -8 -9 -4 -5 3 -12 2 -15 -3 -3 -5 9 -8 27 -7 18
1 38 -2 45 -8 6 -5 12 -8 13 -6 8 38 7 40 -7 28 -11 -9 -14 -8 -14 2 0 11 -2
11 -10 -1 -6 -10 -10 -11 -10 -2 0 6 -4 12 -10 12 -5 0 -10 -5 -10 -11z"/>
<path d="M1184 925 c-19 -29 -12 -44 11 -25 13 11 13 15 3 21 -10 7 -9 9 5 9
9 0 17 5 17 10 0 18 -19 10 -36 -15z"/>
<path d="M1070 896 c7 -7 13 -7 20 0 6 6 3 10 -10 10 -13 0 -16 -4 -10 -10z"/>
<path d="M1067 1699 c7 -7 15 -10 18 -7 3 3 -2 9 -12 12 -14 6 -15 5 -6 -5z"/>
<path d="M955 1651 c-3 -5 -1 -12 5 -16 5 -3 10 -11 10 -17 0 -6 -6 -6 -15 2
-9 7 -18 10 -22 7 -3 -4 2 -9 11 -13 19 -7 22 -26 4 -23 -34 4 -38 -1 -39 -58
-1 -15 -6 -20 -20 -18 -13 3 -16 -1 -12 -12 4 -10 2 -14 -5 -9 -6 3 -14 1 -18
-5 -4 -7 -3 -9 4 -5 7 4 10 -1 9 -14 -1 -11 -9 -23 -19 -26 -10 -3 -23 -15
-29 -27 -9 -21 -9 -21 5 -3 8 10 19 15 25 12 5 -4 16 4 23 16 12 22 13 27 16
57 2 11 5 11 19 0 9 -8 14 -9 10 -3 -7 12 19 29 40 25 17 -2 26 16 12 25 -8 4
-9 3 -5 -4 4 -7 4 -12 0 -12 -11 0 -33 33 -34 49 0 11 3 10 13 -3 12 -16 14
-17 27 -1 11 13 15 13 22 3 7 -10 8 -10 5 2 -2 8 -10 14 -16 13 -13 -4 -14 7
-1 27 6 10 10 11 10 3 0 -7 5 -13 10 -13 6 0 5 8 -2 20 -9 14 -14 16 -20 7 -7
-11 -12 -3 -9 16 1 10 -7 9 -14 -2z m-20 -121 c-5 -8 -11 -8 -17 -2 -6 6 -7
16 -3 22 5 8 11 8 17 2 6 -6 7 -16 3 -22z"/>
<path d="M1855 1404 c15 -11 15 -14 -4 -33 -12 -12 -25 -21 -29 -21 -7 0 -42
-63 -42 -75 0 -2 6 -2 14 1 8 3 14 11 12 17 -1 7 -1 9 1 5 3 -5 10 -8 16 -8 5
0 7 3 4 7 -4 3 -1 13 6 21 10 13 9 15 -7 9 -16 -6 -17 -5 -6 8 9 11 15 13 20
5 5 -7 10 -3 13 11 4 13 9 20 13 17 3 -4 1 -15 -4 -25 -8 -14 -6 -23 9 -39 15
-16 17 -24 8 -29 -7 -5 -10 -4 -6 2 4 6 -1 17 -11 24 -16 13 -16 13 -2 -6 14
-19 14 -19 -5 -5 -19 14 -19 14 -5 -5 14 -19 14 -19 -4 -5 -12 9 -17 10 -12 3
5 -9 2 -11 -11 -7 -15 5 -15 4 -3 -4 8 -6 18 -8 22 -6 4 3 8 0 8 -6 0 -7 -6
-10 -14 -7 -18 7 -36 -12 -29 -32 4 -14 3 -14 -6 -1 -8 11 -11 12 -11 2 0 -7
-5 -10 -11 -7 -6 5 -4 11 6 19 16 11 15 13 -1 27 -16 12 -17 12 -11 -3 4 -12
-1 -22 -16 -30 -12 -7 -25 -11 -29 -10 -12 3 -10 -16 2 -23 6 -4 -5 -25 -26
-50 -35 -44 -39 -70 -7 -58 13 5 12 0 -6 -25 -12 -18 -27 -29 -33 -26 -7 4 -8
2 -4 -5 4 -6 1 -22 -7 -35 -9 -14 -12 -28 -7 -36 5 -8 7 -17 4 -21 -2 -4 0
-10 5 -14 10 -6 7 27 -4 44 -3 5 -1 12 4 15 5 4 12 -3 16 -13 4 -13 12 -18 23
-15 14 5 13 3 -2 -10 -11 -9 -15 -16 -9 -16 6 0 16 7 23 16 11 13 10 16 -8 21
-12 3 -22 8 -22 12 1 10 30 46 38 46 4 0 6 4 4 9 -4 11 18 36 30 36 6 0 5 -7
-2 -15 -7 -9 -10 -18 -7 -21 3 -3 10 4 17 15 8 17 8 22 -3 27 -15 5 -19 34 -5
34 4 0 8 -4 8 -9 0 -18 51 -8 69 15 10 13 21 20 25 17 3 -3 6 -1 6 5 0 17 -20
15 -26 -2 -7 -19 -46 -6 -50 16 -1 11 6 16 24 16 24 0 25 -1 7 -14 -10 -8 -14
-14 -8 -14 6 0 16 7 23 15 8 9 21 13 34 10 12 -4 17 -3 11 2 -14 11 -17 33 -5
33 6 0 15 -10 20 -22 6 -16 9 -18 9 -6 1 9 7 19 14 22 6 3 3 4 -7 3 -10 -1
-21 3 -23 10 -3 8 5 10 24 7 19 -3 23 -1 14 5 -8 5 -9 11 -3 15 6 4 15 -2 21
-11 5 -10 13 -14 17 -10 4 4 -2 14 -14 23 -36 25 -25 35 14 12 26 -15 32 -23
22 -29 -11 -7 -11 -9 0 -9 8 0 10 -5 6 -12 -4 -7 -3 -10 1 -5 18 16 15 46 -6
52 -17 6 -19 9 -8 16 10 6 9 8 -6 8 -38 1 -55 4 -55 11 0 15 14 19 32 9 18
-10 19 -9 7 13 -7 13 -14 26 -15 31 -1 4 -2 10 -3 13 0 4 -8 1 -16 -6 -10 -9
-15 -9 -16 -1 -3 20 -4 26 -12 38 -4 6 -1 14 5 16 10 4 10 6 0 6 -7 1 -11 5
-7 10 3 6 -4 9 -15 8 -19 -1 -20 -3 -5 -13z m53 -72 c9 7 14 8 10 4 -4 -5 -2
-16 5 -24 8 -11 8 -14 0 -9 -6 4 -15 2 -18 -3 -10 -16 -45 18 -38 37 5 13 7
13 15 -1 8 -14 12 -15 26 -4z m-10 -85 c15 6 15 5 3 -10 -7 -9 -17 -15 -21
-12 -4 3 -13 -2 -20 -10 -7 -8 -17 -12 -24 -8 -6 4 -5 -1 3 -10 12 -15 12 -17
-4 -11 -14 6 -16 4 -10 -6 5 -9 4 -11 -4 -6 -6 4 -9 13 -5 19 3 7 -2 3 -10 -7
-10 -13 -16 -15 -16 -7 0 10 -3 11 -14 2 -14 -12 -15 -23 -2 -53 5 -10 14 -14
23 -11 11 4 14 2 9 -5 -8 -14 -45 -10 -54 5 -5 8 -13 7 -26 -3 -13 -9 -15 -14
-6 -14 7 0 10 -3 7 -6 -4 -4 -13 -1 -22 6 -12 10 -15 10 -15 0 0 -8 -3 -11 -6
-7 -4 3 9 25 27 48 18 23 34 49 35 57 4 21 12 26 26 15 21 -15 43 -9 43 12 0
13 6 19 18 17 9 -2 20 5 24 14 5 14 7 15 15 1 5 -10 15 -14 26 -10z m2 19 c0
-3 -4 -8 -10 -11 -5 -3 -10 -1 -10 4 0 6 5 11 10 11 6 0 10 -2 10 -4z m-185
-202 c-9 -9 -14 -23 -11 -31 3 -8 2 -11 -4 -8 -5 3 -14 -4 -20 -16 -7 -11 -14
-18 -17 -15 -8 7 47 86 59 86 5 0 2 -7 -7 -16z"/>
<path d="M1870 1327 c0 -2 6 -10 14 -16 11 -9 16 -9 22 1 4 7 4 10 -1 6 -4 -4
-14 -3 -22 3 -7 6 -13 9 -13 6z"/>
<path d="M1855 1239 c-4 -6 -14 -8 -24 -4 -11 4 -13 3 -5 -5 12 -12 44 -4 44
11 0 12 -7 11 -15 -2z"/>
<path d="M1755 1200 c-3 -5 -3 -10 1 -10 4 0 -3 -11 -16 -25 -13 -14 -20 -25
-15 -25 5 0 0 -7 -11 -16 -18 -15 -17 -15 7 -1 20 12 29 13 40 4 10 -10 11 -9
2 3 -19 25 -19 27 0 48 11 12 14 22 8 26 -5 4 -12 2 -16 -4z"/>
<path d="M1746 1271 c-16 -17 -16 -19 0 -25 9 -4 19 -4 22 -1 3 3 0 5 -8 5
-10 0 -10 3 0 15 19 23 6 28 -14 6z"/>
<path d="M1795 1260 c3 -5 8 -10 11 -10 2 0 4 5 4 10 0 6 -5 10 -11 10 -5 0
-7 -4 -4 -10z"/>
<path d="M1916 1185 c-9 -26 -7 -32 5 -12 6 10 9 21 6 23 -2 3 -7 -2 -11 -11z"/>
<path d="M1950 1185 c0 -8 4 -15 10 -15 5 0 7 7 4 15 -4 8 -8 15 -10 15 -2 0
-4 -7 -4 -15z"/>
<path d="M1934 1162 c3 -5 0 -13 -6 -15 -9 -4 -10 -6 -1 -6 17 -1 25 16 12 25
-7 4 -9 3 -5 -4z"/>
<path d="M1982 1144 c10 -10 20 -16 22 -13 3 3 -5 11 -17 18 -21 13 -21 12 -5
-5z"/>
<path d="M1863 1143 c9 -8 47 -11 47 -4 0 5 -11 9 -25 9 -14 0 -24 -2 -22 -5z"/>
<path d="M1953 1127 c0 -8 6 -14 14 -14 9 0 10 4 2 14 -6 7 -12 13 -14 13 -1
0 -2 -6 -2 -13z"/>
<path d="M1855 1119 c-4 -6 -4 -13 -1 -16 3 -4 6 -1 6 6 0 7 5 9 12 5 7 -4 8
-3 4 4 -9 15 -13 15 -21 1z"/>
<path d="M1916 1122 c-3 -5 1 -9 9 -9 8 0 12 4 9 9 -3 4 -7 8 -9 8 -2 0 -6 -4
-9 -8z"/>
<path d="M1831 1097 c-1 -11 -6 -15 -13 -11 -7 5 -8 3 -3 -5 10 -16 29 2 22
21 -4 8 -6 7 -6 -5z"/>
<path d="M1770 1071 c0 -17 21 -24 33 -12 9 9 7 10 -7 5 -13 -5 -17 -4 -12 4
4 7 2 12 -3 12 -6 0 -11 -4 -11 -9z"/>
<path d="M1966 1058 c3 -5 10 -6 15 -3 13 9 11 12 -6 12 -8 0 -12 -4 -9 -9z"/>
<path d="M1913 1045 c0 -8 4 -12 9 -9 5 3 6 10 3 15 -9 13 -12 11 -12 -6z"/>
<path d="M1750 1025 c-7 -13 -16 -22 -20 -20 -4 2 -16 -2 -26 -11 -18 -14 -18
-15 2 -5 12 6 24 8 26 5 3 -2 13 7 22 22 10 14 16 28 13 30 -2 2 -10 -7 -17
-21z"/>
<path d="M1803 1035 c-3 -9 -3 -18 -1 -21 3 -3 8 4 11 16 6 23 -1 27 -10 5z"/>
<path d="M1752 989 c-7 -12 -11 -24 -8 -27 3 -3 6 0 6 7 0 7 4 10 8 7 4 -2 9
4 9 15 2 24 1 24 -15 -2z"/>
<path d="M1890 1000 c0 -5 5 -10 11 -10 5 0 7 5 4 10 -3 6 -8 10 -11 10 -2 0
-4 -4 -4 -10z"/>
<path d="M1954 1002 c4 -3 14 -7 22 -8 9 -1 13 0 10 4 -4 3 -14 7 -22 8 -9 1
-13 0 -10 -4z"/>
<path d="M1795 980 c-3 -5 -1 -10 4 -10 6 0 11 5 11 10 0 6 -2 10 -4 10 -3 0
-8 -4 -11 -10z"/>
<path d="M1827 979 c7 -7 15 -10 18 -7 3 3 -2 9 -12 12 -14 6 -15 5 -6 -5z"/>
<path d="M1773 947 c0 -8 6 -14 14 -14 9 0 10 4 2 14 -6 7 -12 13 -14 13 -1 0
-2 -6 -2 -13z"/>
<path d="M1720 945 c0 -2 6 -8 13 -14 10 -8 14 -7 14 2 0 8 -6 14 -14 14 -7 0
-13 -1 -13 -2z"/>
<path d="M1699 928 c0 -2 -2 -13 -3 -24 -2 -19 0 -20 16 -10 16 9 16 12 3 14
-8 2 -13 8 -10 13 4 5 4 9 1 9 -3 0 -6 -1 -7 -2z"/>
<path d="M1855 919 c-3 -4 2 -6 10 -5 21 3 28 13 10 13 -9 0 -18 -4 -20 -8z"/>
<path d="M1720 880 c-9 -6 -10 -10 -3 -10 6 0 15 5 18 10 8 12 4 12 -15 0z"/>
<path d="M1633 866 c0 -7 6 -13 14 -13 7 0 13 4 13 8 0 4 -6 9 -13 12 -8 3
-14 0 -14 -7z"/>
<path d="M1574 851 c1 -16 36 -25 36 -9 0 6 -6 8 -14 5 -8 -3 -17 -1 -19 6 -2
7 -4 6 -3 -2z"/>
<path d="M1787 859 c7 -7 15 -10 18 -7 3 3 -2 9 -12 12 -14 6 -15 5 -6 -5z"/>
<path d="M1715 851 c-3 -5 -2 -12 3 -15 5 -3 9 1 9 9 0 17 -3 19 -12 6z"/>
<path d="M1646 823 c-6 -14 -5 -15 5 -6 7 7 10 15 7 18 -3 3 -9 -2 -12 -12z"/>
<path d="M798 1308 c10 -13 10 -17 0 -21 -11 -4 -10 -6 0 -6 8 -1 10 -6 6 -13
-4 -7 -3 -9 1 -5 15 13 14 36 -3 49 -15 11 -15 11 -4 -4z"/>
<path d="M755 1240 c-3 -5 -1 -10 4 -10 6 0 11 5 11 10 0 6 -2 10 -4 10 -3 0
-8 -4 -11 -10z"/>
<path d="M740 1190 c-9 -6 -10 -10 -3 -10 6 0 10 -8 8 -17 -2 -10 -4 -21 -4
-25 -1 -5 -8 -8 -16 -8 -20 0 -19 -13 4 -34 18 -17 20 -17 30 2 7 13 7 22 -2
31 -9 9 -9 14 0 19 11 7 13 36 2 46 -2 3 -11 1 -19 -4z m13 -86 c-4 -11 -9
-12 -19 -3 -19 15 -18 20 3 12 12 -5 14 -3 8 7 -5 8 -4 11 3 6 6 -4 9 -13 5
-22z"/>
<path d="M784 1170 c1 -14 6 -24 9 -22 11 4 11 6 -1 27 -11 19 -12 18 -8 -5z"/>
<path d="M1467 899 c7 -7 15 -10 18 -7 3 3 -2 9 -12 12 -14 6 -15 5 -6 -5z"/>
<path d="M1435 861 c-3 -5 -2 -12 3 -15 5 -3 9 1 9 9 0 17 -3 19 -12 6z"/>
<path d="M1956 2462 c-3 -5 1 -9 9 -9 8 0 12 4 9 9 -3 4 -7 8 -9 8 -2 0 -6 -4
-9 -8z"/>
<path d="M2010 2440 c0 -5 5 -10 11 -10 5 0 7 5 4 10 -3 6 -8 10 -11 10 -2 0
-4 -4 -4 -10z"/>
<path d="M1955 2431 c-3 -5 -2 -12 3 -15 5 -3 9 1 9 9 0 17 -3 19 -12 6z"/>
<path d="M2110 2426 c0 -2 7 -7 16 -10 8 -3 12 -2 9 4 -6 10 -25 14 -25 6z"/>
<path d="M1790 2406 c0 -2 7 -7 16 -10 8 -3 12 -2 9 4 -6 10 -25 14 -25 6z"/>
<path d="M1904 2402 c4 -3 14 -7 22 -8 9 -1 13 0 10 4 -4 3 -14 7 -22 8 -9 1
-13 0 -10 -4z"/>
<path d="M2275 2400 c3 -5 8 -10 11 -10 2 0 4 5 4 10 0 6 -5 10 -11 10 -5 0
-7 -4 -4 -10z"/>
<path d="M1853 2383 c0 -8 6 -9 19 -2 10 5 18 11 18 12 0 2 -8 3 -18 3 -10 0
-19 -6 -19 -13z"/>
<path d="M2075 2390 c-4 -6 -11 -8 -16 -5 -5 4 -9 1 -9 -4 0 -16 16 -13 30 4
7 8 10 15 7 15 -3 0 -9 -5 -12 -10z"/>
<path d="M2155 2389 c-4 -6 -5 -12 -2 -15 2 -3 7 2 10 11 7 17 1 20 -8 4z"/>
<path d="M1895 2371 c-3 -5 0 -13 6 -17 8 -5 9 -3 4 6 -6 9 -1 10 16 5 19 -5
21 -4 9 4 -19 13 -27 14 -35 2z"/>
<path d="M2235 2371 c-3 -5 -2 -12 3 -15 5 -3 9 1 9 9 0 17 -3 19 -12 6z"/>
<path d="M1870 2361 c0 -6 4 -13 10 -16 6 -3 7 1 4 9 -7 18 -14 21 -14 7z"/>
<path d="M1987 2353 c3 -7 6 -13 8 -13 2 0 5 6 8 13 3 8 -1 14 -8 14 -7 0 -11
-6 -8 -14z"/>
<path d="M2026 2356 c5 -13 4 -17 -4 -12 -8 5 -10 2 -5 -10 6 -15 7 -15 16 1
6 11 5 21 -3 28 -8 9 -9 7 -4 -7z"/>
<path d="M2107 2349 c6 -22 20 -26 20 -4 0 8 -6 16 -13 19 -7 3 -10 -2 -7 -15z"/>
<path d="M2195 2362 c3 -3 0 -11 -7 -19 -6 -7 -9 -15 -7 -17 2 -2 12 6 21 18
13 18 14 23 2 23 -8 0 -12 -3 -9 -5z"/>
<path d="M1936 2335 c4 -8 8 -15 10 -15 2 0 4 7 4 15 0 8 -4 15 -10 15 -5 0
-7 -7 -4 -15z"/>
<path d="M1910 2330 c0 -5 5 -10 11 -10 5 0 7 5 4 10 -3 6 -8 10 -11 10 -2 0
-4 -4 -4 -10z"/>
<path d="M2234 2325 c1 -8 8 -21 16 -28 12 -10 12 -9 2 4 -6 9 -9 18 -6 21 3
3 1 9 -4 12 -6 3 -9 -1 -8 -9z"/>
<path d="M1974 2316 c-3 -9 -11 -13 -17 -9 -6 4 -7 1 -2 -6 6 -10 11 -9 23 3
9 8 13 19 9 22 -4 4 -9 -1 -13 -10z"/>
<path d="M2036 2313 c-6 -14 -5 -15 5 -6 7 7 10 15 7 18 -3 3 -9 -2 -12 -12z"/>
<path d="M2130 2310 c-7 -14 -7 -20 0 -20 5 0 10 7 10 15 0 9 6 12 15 9 8 -4
15 -4 15 -1 0 16 -31 13 -40 -3z"/>
<path d="M2267 2320 c7 -9 10 -30 7 -50 -7 -43 3 -37 10 7 4 22 1 34 -12 44
-15 12 -16 12 -5 -1z"/>
<path d="M2214 2297 c4 -13 1 -17 -12 -15 -9 2 -21 8 -25 13 -5 6 -7 4 -5 -4
4 -16 44 -25 52 -13 3 4 0 14 -6 22 -8 12 -9 12 -4 -3z"/>
<path d="M2230 2261 c0 -5 5 -13 10 -16 6 -3 10 -2 10 4 0 5 -4 13 -10 16 -5
3 -10 2 -10 -4z"/>
<path d="M2308 2252 c4 -11 1 -13 -8 -7 -8 5 -11 4 -6 -3 4 -6 12 -9 20 -6 16
6 17 31 0 31 -7 0 -10 -7 -6 -15z"/>
<path d="M2193 2253 c9 -2 17 -9 17 -14 0 -5 5 -9 11 -9 8 0 8 5 -1 15 -7 8
-20 14 -29 14 -13 -1 -13 -2 2 -6z"/>
<path d="M2318 2218 c-9 -5 -6 -7 9 -5 12 2 25 6 28 8 8 9 -23 6 -37 -3z"/>
<path d="M2390 2226 c0 -2 7 -7 16 -10 8 -3 12 -2 9 4 -6 10 -25 14 -25 6z"/>
<path d="M2361 2201 c-8 -5 -9 -11 -3 -15 5 -3 12 1 16 9 6 17 6 18 -13 6z"/>
<path d="M2455 2200 c-3 -5 -1 -10 4 -10 6 0 11 5 11 10 0 6 -2 10 -4 10 -3 0
-8 -4 -11 -10z"/>
<path d="M2350 2160 c0 -5 5 -10 10 -10 6 0 10 5 10 10 0 6 -4 10 -10 10 -5 0
-10 -4 -10 -10z"/>
<path d="M2387 2133 c3 -7 9 -10 14 -7 14 8 11 21 -5 21 -8 0 -12 -6 -9 -14z"/>
<path d="M2330 2111 c0 -12 50 -44 57 -37 3 3 -2 8 -11 12 -9 3 -13 10 -10 15
3 5 -3 6 -12 2 -12 -4 -15 -3 -10 5 4 7 2 12 -3 12 -6 0 -11 -4 -11 -9z"/>
<path d="M2380 2106 c0 -2 8 -10 18 -17 15 -13 16 -12 3 4 -13 16 -21 21 -21
13z"/>
<path d="M2456 2099 c4 -8 30 -6 38 2 3 3 -5 5 -19 5 -13 0 -22 -3 -19 -7z"/>
<path d="M2422 2060 c0 -14 2 -19 5 -12 2 6 2 18 0 25 -3 6 -5 1 -5 -13z"/>
<path d="M2453 2065 c0 -8 4 -12 9 -9 5 3 6 10 3 15 -9 13 -12 11 -12 -6z"/>
<path d="M2442 2020 c-11 -19 1 -40 15 -26 4 3 1 6 -7 6 -10 0 -10 3 0 15 7 9
11 17 9 20 -3 2 -10 -4 -17 -15z"/>
<path d="M2470 2026 c0 -2 7 -7 16 -10 8 -3 12 -2 9 4 -6 10 -25 14 -25 6z"/>
<path d="M2515 1931 c-3 -5 -2 -12 3 -15 5 -3 9 1 9 9 0 17 -3 19 -12 6z"/>
<path d="M2486 1842 c-3 -5 1 -9 9 -9 8 0 12 4 9 9 -3 4 -7 8 -9 8 -2 0 -6 -4
-9 -8z"/>
<path d="M257 675 c-4 -8 -3 -16 1 -19 4 -3 9 4 9 15 2 23 -3 25 -10 4z"/>
<path d="M348 597 c7 -8 10 -16 7 -19 -3 -2 1 -5 9 -5 18 0 10 24 -11 31 -12
5 -13 4 -5 -7z"/>
<path d="M295 560 c-3 -5 -1 -10 4 -10 6 0 11 5 11 10 0 6 -2 10 -4 10 -3 0
-8 -4 -11 -10z"/>
<path d="M374 546 c1 -8 5 -18 8 -22 4 -3 5 1 4 10 -1 8 -5 18 -8 22 -4 3 -5
-1 -4 -10z"/>
<path d="M411 551 c-8 -5 -9 -11 -3 -15 5 -3 12 1 16 9 6 17 6 18 -13 6z"/>
<path d="M457 536 c-3 -8 4 -21 18 -30 21 -14 24 -14 19 -1 -4 8 -12 15 -20
15 -8 0 -11 6 -8 15 4 8 4 15 1 15 -3 0 -7 -6 -10 -14z"/>
<path d="M414 499 c0 -14 3 -16 16 -6 8 6 16 12 18 13 1 1 -5 4 -15 6 -13 4
-19 0 -19 -13z"/>
<path d="M510 480 c0 -5 5 -10 10 -10 6 0 10 5 10 10 0 6 -4 10 -10 10 -5 0
-10 -4 -10 -10z"/>
<path d="M535 460 c-3 -6 1 -7 9 -4 18 7 21 14 7 14 -6 0 -13 -4 -16 -10z"/>
<path d="M598 448 c-10 -10 -13 -18 -7 -18 5 0 8 -4 5 -8 -3 -5 1 -9 9 -9 8 0
15 4 15 9 0 4 -5 8 -11 8 -8 0 -7 5 1 15 19 22 8 25 -12 3z"/>
<path d="M553 435 c0 -8 4 -12 9 -9 5 3 6 10 3 15 -9 13 -12 11 -12 -6z"/>
<path d="M630 440 c0 -6 4 -9 9 -5 5 3 12 -5 14 -17 5 -22 5 -21 4 1 -2 24
-27 44 -27 21z"/>
<path d="M522 420 c-9 -15 -9 -21 1 -26 6 -4 9 -4 5 1 -4 4 -3 14 4 22 6 7 9
15 7 18 -3 2 -10 -4 -17 -15z"/>
<path d="M545 399 c-3 -4 2 -6 10 -5 21 3 28 13 10 13 -9 0 -18 -4 -20 -8z"/>
<path d="M651 374 c0 -11 3 -14 6 -6 3 7 2 16 -1 19 -3 4 -6 -2 -5 -13z"/>
<path d="M760 380 c8 -5 20 -10 25 -10 6 0 3 5 -5 10 -8 5 -19 10 -25 10 -5 0
-3 -5 5 -10z"/>
<path d="M670 376 c0 -2 8 -10 18 -17 15 -13 16 -12 3 4 -13 16 -21 21 -21 13z"/>
<path d="M716 361 c-3 -4 4 -17 17 -27 22 -19 22 -19 4 2 -9 11 -14 24 -10 27
3 4 4 7 0 7 -3 0 -8 -4 -11 -9z"/>
<path d="M748 363 c6 -2 9 -10 6 -15 -4 -7 -2 -8 5 -4 13 9 5 26 -12 25 -9 0
-8 -2 1 -6z"/>
<path d="M656 342 c-3 -4 4 -9 15 -9 23 -2 25 3 4 10 -8 4 -16 3 -19 -1z"/>
<path d="M627 299 c7 -7 15 -10 18 -7 3 3 -2 9 -12 12 -14 6 -15 5 -6 -5z"/>
<path d="M696 302 c-3 -5 1 -9 9 -9 8 0 12 4 9 9 -3 4 -7 8 -9 8 -2 0 -6 -4
-9 -8z"/>
<path d="M771 287 c2 -1 13 -9 24 -17 19 -14 19 -14 6 3 -7 9 -18 17 -24 17
-6 0 -8 -1 -6 -3z"/>
<path d="M850 280 c0 -5 5 -10 11 -10 5 0 7 5 4 10 -3 6 -8 10 -11 10 -2 0 -4
-4 -4 -10z"/>
</g>
</svg>
